# Blender v2.93.4 OBJ File: 'lol.blend'
# www.blender.org
mtllib lol.mtl
o stabilizier.001
v 1.005491 0.445402 -2.604688
v 2.606213 -1.246405 -1.006330
v 1.006213 -1.246405 -2.606330
v 2.605491 0.445402 -1.004688
v 1.002603 1.247627 -0.998121
v 1.006213 -1.246405 -1.006330
v -1.001403 -1.248849 1.002077
v -1.005805 -1.246405 -1.005737
v 2.605804 -1.246405 1.005737
v 4.998596 -0.752373 1.002077
v 4.998597 -1.248849 -0.997923
v 4.998597 -0.752373 -0.997923
v 4.998596 -1.248849 1.002077
v 1.002602 -0.752371 -4.998120
v -0.997398 -1.248847 -4.998121
v -0.997398 -0.752371 -4.998121
v -1.005805 -1.246405 -2.605737
v -2.600039 -1.248360 -1.002809
v -1.004363 0.445402 -2.605005
v -2.598597 0.447627 -1.002077
v -0.998597 1.247627 -1.002077
v 1.002602 -1.248847 -4.998120
v -1.005491 0.445402 2.604688
v -2.605251 -1.246894 1.005479
v -1.005251 -1.246894 2.605479
v -2.605491 0.445402 1.004688
v -1.002603 1.247627 0.998121
v -4.177013 -0.341581 -0.359999
v -4.998597 -0.752373 0.997923
v -4.177013 -0.341581 0.360001
v -1.851588 0.821348 -0.360000
v -4.998596 -0.752373 -1.002077
v -4.998597 -1.248849 0.997923
v -4.998596 -1.248849 -1.002077
v -1.002602 -0.752375 4.998120
v 0.997398 -1.248851 4.998121
v 0.997398 -0.752375 4.998121
v 1.005805 -1.246405 2.605737
v 1.005805 -1.246405 1.005737
v 1.004123 0.445402 2.604214
v 2.598357 0.447627 1.001286
v 0.997398 1.247627 0.998121
v -1.002602 -1.248851 4.998120
v 0.359999 -0.341770 -4.176919
v -0.360001 -0.341770 -4.176919
v 0.359999 0.821155 -1.851491
v -0.360000 0.820984 1.851406
v -0.360000 -0.341774 4.176919
v 0.360001 -0.341774 4.176919
v 4.177177 -0.341252 0.359999
v 1.851645 0.821464 0.360000
v -0.765673 1.247627 -0.950000
v 0.950000 1.247627 -0.946162
v 0.950000 1.247627 0.950000
v 0.779974 1.247627 0.950000
v 1.535954 0.188285 -0.360000
v 1.535954 0.188285 0.360000
v 4.177177 -0.341252 -0.360001
v 1.852020 0.822215 -0.360000
v 3.862783 -0.971829 -0.360001
v 3.862783 -0.971829 0.359999
v -0.360001 0.188286 -1.535954
v -0.360000 0.821726 -1.851776
v 0.359999 -0.971827 -3.862783
v -0.360001 -0.971827 -3.862783
v 0.360000 0.188286 -1.535954
v -3.862784 -0.971829 0.360001
v -1.535954 0.188285 -0.360000
v -3.862784 -0.971829 -0.359999
v -1.535954 0.188285 0.360000
v -1.851876 0.821925 0.360000
v 0.360000 -0.971830 3.862783
v -0.360000 0.188286 1.535954
v -0.360000 -0.971831 3.862783
v 0.360000 0.188286 1.535954
v 0.360000 0.820984 1.851406
v 0.950000 1.247627 -0.763251
v -0.950000 1.247627 0.950000
v -0.950000 1.247627 0.763250
v -0.950000 1.247627 -0.950000
v -0.950000 -0.177356 -0.950000
v 0.950000 -0.177356 -0.950000
v 0.950000 -0.177356 0.950000
v -0.950000 -0.177356 0.950000
vt 0.031250 0.968750
vt 0.125000 0.875000
vt 0.125000 0.968750
vt 0.218750 0.976562
vt 0.312500 0.882812
vt 0.312500 0.976562
vt 0.140625 0.273438
vt 0.234375 0.179688
vt 0.234375 0.273438
vt 0.359375 0.398438
vt 0.234375 0.398438
vt 0.359375 0.179688
vt 0.148438 0.742188
vt 0.179688 0.867188
vt 0.148438 0.867188
vt 0.093750 0.734375
vt 0.031250 0.875000
vt 0.234375 0.046875
vt 0.093750 0.734375
vt 0.125000 0.875000
vt 0.125000 0.734375
vt 0.179688 0.867188
vt 0.148438 0.742188
vt 0.179688 0.742188
vt 0.140625 0.398438
vt 0.234375 0.492188
vt 0.218750 0.976562
vt 0.312500 0.882812
vt 0.312500 0.976562
vt 0.031250 0.968750
vt 0.125000 0.875000
vt 0.125000 0.968750
vt 0.093750 0.734375
vt 0.031250 0.875000
vt 0.007812 0.398438
vt 0.093750 0.734375
vt 0.125000 0.875000
vt 0.125000 0.734375
vt 0.031250 0.968750
vt 0.125000 0.875000
vt 0.125000 0.968750
vt 0.218750 0.976562
vt 0.312500 0.882812
vt 0.312500 0.976562
vt 0.453125 0.398438
vt 0.359375 0.492188
vt 0.468750 0.578125
vt 0.421875 0.492188
vt 0.468750 0.531250
vt 0.601562 0.578125
vt 0.421875 0.617188
vt 0.148438 0.742188
vt 0.179688 0.867188
vt 0.148438 0.867188
vt 0.093750 0.734375
vt 0.031250 0.875000
vt 0.359375 0.625000
vt 0.093750 0.734375
vt 0.125000 0.875000
vt 0.125000 0.734375
vt 0.148438 0.742188
vt 0.179688 0.867188
vt 0.148438 0.867188
vt 0.453125 0.273438
vt 0.359375 0.273438
vt 0.312500 0.882812
vt 0.218750 0.976562
vt 0.312500 0.976562
vt 0.031250 0.968750
vt 0.125000 0.875000
vt 0.125000 0.968750
vt 0.093750 0.734375
vt 0.031250 0.875000
vt 0.585938 0.273438
vt 0.093750 0.734375
vt 0.125000 0.875000
vt 0.125000 0.734375
vt 0.734375 0.796875
vt 0.648438 0.843750
vt 0.687500 0.796875
vt 0.734375 0.664062
vt 0.773438 0.843750
vt 0.687500 0.445312
vt 0.648438 0.265625
vt 0.687500 0.312500
vt 0.773438 0.265625
vt 0.734375 0.312500
vt 1.000000 0.617188
vt 0.953125 0.531250
vt 1.000000 0.492188
vt 0.820312 0.531250
vt 0.773438 0.617188
vt 0.662905 0.613849
vt 0.770070 0.613820
vt 0.770319 0.495306
vt 0.759923 0.495306
vt 0.773438 0.492188
vt 0.437500 0.937500
vt 0.390625 0.890625
vt 0.437500 0.890625
vt 0.960938 0.828125
vt 0.914062 0.960938
vt 0.914062 0.828125
vt 0.437500 0.890625
vt 0.390625 0.937500
vt 0.390625 0.890625
vt 0.960938 0.960938
vt 0.914062 0.828125
vt 0.960938 0.828125
vt 0.843750 0.960938
vt 0.890625 0.828125
vt 0.890625 0.960938
vt 0.390625 0.890625
vt 0.437500 0.937500
vt 0.390625 0.937500
vt 0.960938 0.828125
vt 0.914062 0.960938
vt 0.914062 0.828125
vt 0.390625 0.890625
vt 0.437500 0.937500
vt 0.390625 0.937500
vt 0.960938 0.960938
vt 0.914062 0.828125
vt 0.960938 0.828125
vt 0.890625 0.828125
vt 0.843750 0.960938
vt 0.843750 0.828125
vt 0.437500 0.890625
vt 0.390625 0.937500
vt 0.390625 0.890625
vt 0.960938 0.960938
vt 0.914062 0.828125
vt 0.960938 0.828125
vt 0.390625 0.890625
vt 0.437500 0.937500
vt 0.390625 0.937500
vt 0.960938 0.828125
vt 0.914062 0.960938
vt 0.914062 0.828125
vt 0.843750 0.960938
vt 0.890625 0.828125
vt 0.890625 0.960938
vt 0.390625 0.937500
vt 0.437500 0.890625
vt 0.437500 0.937500
vt 0.960938 0.960938
vt 0.914062 0.828125
vt 0.960938 0.828125
vt 0.437500 0.937500
vt 0.390625 0.890625
vt 0.437500 0.890625
vt 0.960938 0.828125
vt 0.914062 0.960938
vt 0.914062 0.828125
vt 0.890625 0.960938
vt 0.843750 0.828125
vt 0.890625 0.828125
vt 0.770070 0.602595
vt 0.648438 0.492188
vt 0.651805 0.495555
vt 0.651805 0.506780
vt 0.734375 0.445312
vt 0.820312 0.578125
vt 0.953125 0.578125
vt 0.687500 0.664062
vt 0.648438 0.617188
vt 0.601562 0.531250
vt 0.179688 0.742188
vt 0.125000 0.734375
vt 0.359375 0.046875
vt 0.031250 0.875000
vt 0.148438 0.867188
vt 0.125000 0.734375
vt 0.007812 0.273438
vt 0.031250 0.875000
vt 0.179688 0.742188
vt 0.125000 0.734375
vt 0.234375 0.625000
vt 0.031250 0.875000
vt 0.179688 0.742188
vt 0.125000 0.734375
vt 0.585938 0.398438
vt 0.031250 0.875000
vt 0.651776 0.613849
vt 0.390625 0.937500
vt 0.960938 0.960938
vt 0.437500 0.937500
vt 0.914062 0.960938
vt 0.843750 0.828125
vt 0.437500 0.890625
vt 0.960938 0.960938
vt 0.437500 0.890625
vt 0.914062 0.960938
vt 0.890625 0.960938
vt 0.437500 0.937500
vt 0.914062 0.960938
vt 0.437500 0.890625
vt 0.960938 0.960938
vt 0.843750 0.828125
vt 0.390625 0.890625
vt 0.914062 0.960938
vt 0.390625 0.937500
vt 0.960938 0.960938
vt 0.843750 0.960938
vt 0.578125 0.125000
vt 0.578125 0.023438
vt 0.476562 0.023438
vt 0.710938 0.125000
vt 0.710938 0.023438
vt 0.601562 0.023438
vt 0.835938 0.125000
vt 0.835938 0.023438
vt 0.726562 0.023438
vt 0.968750 0.125000
vt 0.968750 0.023438
vt 0.851562 0.023438
vt 0.835938 0.250000
vt 0.710938 0.250000
vt 0.453125 0.023438
vt 0.453125 0.125000
vt 0.757812 0.289062
vt 0.757812 0.289062
vt 0.757812 0.289062
vt 0.757812 0.289062
vt 0.757812 0.289062
vt 0.757812 0.289062
vt 0.757812 0.289062
vt 0.757812 0.289062
vt 0.757812 0.289062
vt 0.757812 0.289062
vt 0.757812 0.289062
vt 0.757812 0.289062
vt 0.757812 0.289062
vt 0.757812 0.289062
vt 0.757812 0.289062
vt 0.765625 0.296875
vt 0.765625 0.296875
vt 0.765625 0.296875
vn 0.7071 0.0010 -0.7071
vn 0.4074 0.8173 -0.4074
vn 0.0000 -1.0000 -0.0000
vn -0.0000 -1.0000 -0.0012
vn 0.0000 -1.0000 -0.0016
vn 1.0000 -0.0000 0.0000
vn 0.0033 0.0010 -1.0000
vn -0.0010 -1.0000 -0.0000
vn 0.0006 0.0007 1.0000
vn 0.0012 -0.0016 1.0000
vn 0.0015 -0.0000 1.0000
vn 0.0000 0.0000 -1.0000
vn 0.0004 -1.0000 0.0004
vn 0.0012 -1.0000 -0.0000
vn 0.0012 -1.0000 0.0006
vn -0.4084 0.8169 -0.4073
vn -0.7090 0.0009 -0.7052
vn -1.0000 0.0009 -0.0033
vn 0.0000 -1.0000 0.0010
vn 0.0001 -1.0000 0.0005
vn 1.0000 0.0000 -0.0015
vn -0.7071 0.0002 0.7071
vn -0.4074 0.8173 0.4074
vn -0.0012 -1.0000 0.0012
vn -0.0005 -1.0000 0.0006
vn -0.0013 -1.0000 0.0015
vn -0.4472 0.8944 0.0000
vn -0.4473 0.8944 0.0001
vn -0.0012 -1.0000 0.0007
vn -0.0016 -1.0000 0.0007
vn -0.0018 -1.0000 -0.0001
vn -1.0000 0.0000 -0.0000
vn -0.0031 0.0005 1.0000
vn 0.0008 -1.0000 0.0007
vn 0.0000 -1.0000 0.0013
vn -0.0003 0.0000 -1.0000
vn -0.0000 0.0000 1.0000
vn 0.0016 -1.0000 0.0000
vn 0.4077 0.8176 0.4067
vn 0.7081 0.0033 0.7061
vn 0.7073 0.0074 0.7069
vn 0.7071 0.0050 0.7071
vn 1.0000 0.0010 0.0033
vn 0.0002 -1.0000 -0.0010
vn -1.0000 0.0000 0.0011
vn 0.0000 0.8944 -0.4472
vn -0.0001 0.8944 -0.4473
vn -0.0000 0.8944 0.4472
vn 0.4476 0.8942 0.0000
vn 0.4472 0.8944 0.0006
vn 0.0000 1.0000 0.0000
vn 0.8949 -0.4462 0.0000
vn -0.8949 0.4462 0.0000
vn 0.4462 0.8949 0.0000
vn 0.0000 -0.4462 -0.8949
vn 0.0000 0.4462 0.8949
vn 0.0000 0.8949 -0.4462
vn 0.8949 0.4462 0.0000
vn -0.8949 -0.4462 -0.0000
vn -0.4462 0.8949 0.0000
vn 0.0000 0.4462 -0.8949
vn 0.0000 -0.4462 0.8949
vn 0.0000 0.8949 0.4462
vn 0.4475 0.8943 -0.0001
vn 0.4471 0.8945 0.0012
vn 0.0005 0.8943 -0.4475
vn 0.0009 0.8943 -0.4476
vn -0.4475 0.8943 -0.0005
vn -0.4479 0.8941 -0.0004
vn -0.4476 0.8942 -0.0009
vn 0.0015 -1.0000 -0.0002
vn 0.0035 0.0000 -1.0000
vn 0.0008 0.0038 1.0000
vn 0.0010 0.0026 1.0000
vn 0.0016 0.0011 1.0000
vn 0.0006 -1.0000 0.0000
vn -1.0000 0.0000 -0.0035
vn 1.0000 0.0004 -0.0014
vn -0.4472 0.8944 -0.0003
vn 0.0012 -1.0000 -0.0012
vn 0.0010 -1.0000 -0.0015
vn -0.0032 -0.0000 1.0000
vn 0.0002 -1.0000 -0.0000
vn -0.0002 0.0004 -1.0000
vn 0.0002 -1.0000 0.0012
vn 0.0005 -1.0000 0.0015
vn 0.7087 -0.0008 0.7055
vn 0.7090 0.0013 0.7052
vn 0.7078 0.0031 0.7064
vn 1.0000 0.0000 0.0035
vn 0.0000 -1.0000 -0.0008
vn -1.0000 -0.0001 0.0011
vn 0.0003 0.8944 -0.4472
vn 0.4467 0.8947 0.0001
vn 0.4476 0.8942 0.0004
vn 0.0009 0.8942 -0.4476
vn -0.4475 0.8943 -0.0004
vn -0.0008 -0.0015 1.0000
vn -0.0022 -0.0027 1.0000
vn -0.0008 -0.0035 1.0000
vn -0.0015 -0.0007 1.0000
vn 0.0001 0.0018 1.0000
vn 0.0003 -0.0016 1.0000
vn 0.4476 0.8942 0.0030
vn 0.4432 0.8863 -0.1343
vn 0.4422 0.8868 -0.1343
vn -0.3114 0.8499 -0.4250
vn -0.4476 0.8942 -0.0030
vn 0.3118 0.8498 0.4249
vn -0.1087 0.8891 0.4446
vn -0.1630 -0.1304 0.9780
vn 0.0046 0.8942 -0.4476
usemtl Material.002
s off
f 1/1/1 2/2/1 3/3/1
f 4/4/2 1/5/2 5/6/2
f 3/7/3 2/8/3 6/9/3
f 6/9/4 7/10/5 8/11/4
f 9/12/3 6/9/3 2/8/3
f 10/13/6 11/14/6 12/15/6
f 12/16/7 2/2/7 4/17/7
f 11/18/8 9/12/8 2/8/8
f 10/19/9 9/20/10 13/21/11
f 14/22/12 15/23/12 16/24/12
f 17/25/13 6/9/3 8/11/3
f 18/26/14 17/25/15 8/11/14
f 19/27/16 20/28/16 21/29/16
f 20/30/17 17/31/17 18/32/17
f 16/33/18 17/31/18 19/34/18
f 15/35/19 3/7/19 17/25/20
f 14/36/21 3/37/21 22/38/21
f 23/39/22 24/40/22 25/41/22
f 26/42/23 23/43/23 27/44/23
f 25/45/24 24/46/25 7/10/26
f 28/47/27 29/48/27 30/49/27
f 31/50/28 32/51/28 28/47/28
f 18/26/29 7/10/30 24/46/31
f 32/52/32 33/53/32 29/54/32
f 29/55/33 24/40/33 26/56/33
f 33/57/34 18/26/34 24/46/35
f 32/58/36 18/59/36 34/60/36
f 35/61/37 36/62/37 37/63/37
f 38/64/14 7/10/38 39/65/14
f 9/12/3 38/64/3 39/65/3
f 40/66/39 41/67/39 42/68/39
f 41/69/40 38/70/41 9/71/42
f 37/72/43 38/70/43 40/73/43
f 36/74/44 25/45/44 38/64/44
f 35/75/45 25/76/45 43/77/45
f 44/78/46 16/79/46 45/80/46
f 46/81/47 14/82/47 44/78/47
f 47/83/48 35/84/48 48/85/48
f 48/85/48 37/86/48 49/87/48
f 12/88/49 50/89/49 10/90/49
f 51/91/50 10/90/50 50/89/50
f 5/92/51 52/93/51 53/94/51
f 54/95/51 55/96/51 42/97/51
f 56/98/52 51/99/52 57/100/52
f 56/101/37 58/102/37 59/103/37
f 60/104/53 50/105/53 58/106/53
f 50/107/12 57/108/12 51/109/12
f 60/110/54 57/111/54 61/112/54
f 46/113/55 62/114/55 63/115/55
f 62/116/6 45/117/6 63/118/6
f 64/119/56 45/120/56 65/121/56
f 44/122/32 66/123/32 46/124/32
f 65/125/57 66/126/57 64/127/57
f 67/128/58 28/129/58 30/130/58
f 68/131/37 28/132/37 69/133/37
f 31/134/59 70/135/59 71/136/59
f 70/137/12 30/138/12 71/139/12
f 68/140/60 67/141/60 70/142/60
f 72/143/61 48/144/61 49/145/61
f 73/146/6 48/147/6 74/148/6
f 75/149/62 47/150/62 73/151/62
f 75/152/32 49/153/32 76/154/32
f 74/155/63 75/156/63 73/157/63
f 42/97/51 77/158/51 54/95/51
f 27/159/51 78/160/51 79/161/51
f 42/97/48 47/83/48 76/162/48
f 37/86/48 76/162/48 49/87/48
f 12/88/64 59/163/64 58/164/64
f 5/92/65 51/91/65 59/163/65
f 16/79/66 63/165/66 45/80/66
f 21/166/67 46/81/67 63/165/67
f 29/48/68 71/167/69 30/49/68
f 27/159/70 31/50/70 71/167/70
f 1/1/1 4/17/1 2/2/1
f 6/9/14 39/65/14 7/10/71
f 9/12/3 39/65/3 6/9/3
f 10/13/6 13/168/6 11/14/6
f 12/16/72 11/169/72 2/2/72
f 11/18/8 13/170/8 9/12/8
f 10/19/73 41/171/74 9/20/75
f 14/22/12 22/172/12 15/23/12
f 17/25/76 3/7/3 6/9/3
f 20/30/17 19/34/17 17/31/17
f 16/33/77 15/173/77 17/31/77
f 15/35/19 22/174/19 3/7/19
f 14/36/78 1/175/78 3/37/78
f 23/39/22 26/56/22 24/40/22
f 28/47/27 32/51/27 29/48/27
f 31/50/79 21/166/79 32/51/79
f 18/26/80 8/11/80 7/10/81
f 32/52/32 34/176/32 33/53/32
f 29/55/82 33/177/82 24/40/82
f 33/57/83 34/178/83 18/26/83
f 32/58/84 20/179/84 18/59/84
f 35/61/37 43/180/37 36/62/37
f 38/64/85 25/45/85 7/10/86
f 41/69/87 40/73/88 38/70/89
f 37/72/90 36/181/90 38/70/90
f 36/74/91 43/182/91 25/45/91
f 35/75/92 23/183/92 25/76/92
f 44/78/46 14/82/46 16/79/46
f 46/81/93 5/92/93 14/82/93
f 47/83/48 27/159/48 35/84/48
f 48/85/48 35/84/48 37/86/48
f 12/88/49 58/164/49 50/89/49
f 51/91/65 42/97/65 10/90/94
f 21/166/51 80/184/51 52/93/51
f 27/159/51 55/96/51 78/160/51
f 56/98/52 59/185/52 51/99/52
f 56/101/37 60/186/37 58/102/37
f 60/104/53 61/187/53 50/105/53
f 50/107/12 61/188/12 57/108/12
f 60/110/54 56/189/54 57/111/54
f 46/113/55 66/190/55 62/114/55
f 62/116/6 65/191/6 45/117/6
f 64/119/56 44/192/56 45/120/56
f 44/122/32 64/193/32 66/123/32
f 65/125/57 62/194/57 66/126/57
f 67/128/58 69/195/58 28/129/58
f 68/131/37 31/196/37 28/132/37
f 31/134/59 68/197/59 70/135/59
f 70/137/12 67/198/12 30/138/12
f 68/140/60 69/199/60 67/141/60
f 72/143/61 74/200/61 48/144/61
f 73/146/6 47/201/6 48/147/6
f 75/149/62 76/202/62 47/150/62
f 75/152/32 72/203/32 49/153/32
f 74/155/63 72/204/63 75/156/63
f 53/94/51 77/158/51 5/92/51
f 21/166/51 79/161/51 80/184/51
f 42/97/48 27/159/48 47/83/48
f 37/86/48 42/97/48 76/162/48
f 12/88/95 5/92/95 59/163/95
f 5/92/65 42/97/65 51/91/65
f 16/79/96 21/166/96 63/165/96
f 21/166/96 5/92/96 46/81/96
f 29/48/70 27/159/70 71/167/97
f 27/159/70 21/166/70 31/50/70
f 81/205/6 80/206/6 79/207/6
f 82/208/98 53/209/99 52/210/100
f 83/211/32 54/212/32 77/213/32
f 84/214/12 78/215/12 55/216/12
f 84/217/51 82/208/51 81/218/51
f 5/92/51 21/166/51 52/93/51
f 42/97/51 5/92/51 77/158/51
f 27/159/51 42/97/51 55/96/51
f 21/166/51 27/159/51 79/161/51
f 79/207/6 78/219/6 84/220/6
f 84/220/6 81/205/6 79/207/6
f 52/210/101 80/206/37 81/205/37
f 81/205/37 82/208/102 52/210/103
f 77/213/32 53/209/32 82/208/32
f 82/208/32 83/211/32 77/213/32
f 55/216/12 54/212/12 83/211/12
f 83/211/12 84/214/12 55/216/12
f 84/217/51 83/211/51 82/208/51
f 5/221/104 12/222/104 4/223/104
f 41/224/105 10/225/106 42/226/105
f 5/221/107 1/227/107 14/228/107
f 27/229/108 29/230/108 26/231/108
f 27/229/109 23/232/109 35/233/109
f 40/234/110 42/226/110 37/235/110
f 32/51/111 21/166/111 20/28/111
f 19/236/112 21/237/112 16/238/112
