# Blender v2.93.4 OBJ File: ''
# www.blender.org
mtllib test.mtl
o Circle_Circle.001
v -0.098597 -0.103194 -0.088226
v 0.097433 -0.103194 -0.089509
v -0.079928 -0.103194 0.089395
v 0.081091 -0.103194 0.088341
v -0.098597 0.103194 -0.088226
v 0.097433 0.103194 -0.089509
v -0.079928 0.103194 0.089395
v 0.081091 0.103194 0.088341
vt 0.665239 0.385299
vt 0.665239 0.751269
vt 0.997055 0.718587
vt 0.997055 0.417980
vt 0.333422 0.751269
vt 0.665239 0.718587
vt 0.665239 0.417980
vt 0.333422 0.385299
vt 0.000000 0.000000
vt 0.000000 0.385298
vt 0.365970 0.385299
vt 0.365970 0.000000
vt 0.699392 0.000000
vt 0.699392 0.385298
vt 1.000000 0.385299
vt 1.000000 0.000000
vt 0.333422 0.385299
vt 0.000000 0.385299
vt 0.000000 0.770597
vt 0.333422 0.770597
vn 0.0000 -1.0000 0.0000
vn 0.0000 1.0000 0.0000
vn -0.0065 0.0000 -1.0000
vn 0.0065 0.0000 1.0000
vn -0.9945 0.0000 0.1045
vn 0.9958 0.0000 0.0915
usemtl Material
s off
f 1/1/1 2/2/1 4/3/1 3/4/1
f 5/5/2 7/6/2 8/7/2 6/8/2
f 1/9/3 5/10/3 6/11/3 2/12/3
f 4/13/4 8/14/4 7/15/4 3/16/4
f 1/17/5 3/18/5 7/19/5 5/20/5
f 2/12/6 6/11/6 8/14/6 4/13/6
