# Blender v2.93.4 OBJ File: ''
# www.blender.org
mtllib test2.mtl
o Circle.001
v -0.152881 0.000000 -0.768586
v -0.299888 0.000000 -0.723993
v -0.299888 0.180167 -0.723993
v -0.152881 0.180167 -0.768586
v -1.000000 0.000000 0.000000
v -0.980785 0.000000 -0.195090
v -0.980785 0.180167 -0.195090
v -1.000000 0.180167 0.000000
v -0.382683 0.000000 -0.923880
v -0.195090 0.000000 -0.980785
v -0.195090 0.180167 -0.980785
v -0.382683 0.180167 -0.923880
v 0.651576 -0.000000 0.435369
v 0.723993 -0.000000 0.299888
v 0.723993 0.180167 0.299888
v 0.651576 0.180167 0.435369
v -0.435369 0.000000 -0.651576
v -0.435369 0.180167 -0.651576
v -0.980785 -0.000000 0.195090
v -0.980785 0.180167 0.195090
v -0.555570 0.000000 -0.831470
v -0.555570 0.180167 -0.831470
v 0.768586 -0.000000 0.152881
v 0.768586 0.180167 0.152881
v -0.923880 -0.000000 0.382683
v -0.923880 0.180167 0.382683
v -0.707107 0.000000 -0.707107
v -0.707107 0.180167 -0.707107
v 0.783644 0.000000 0.000000
v 0.783644 0.180167 0.000000
v -0.554120 0.000000 -0.554120
v -0.554120 0.180167 -0.554120
v -0.831470 -0.000000 0.555570
v -0.831470 0.180167 0.555570
v -0.831470 0.000000 -0.555570
v -0.831470 0.180167 -0.555570
v 0.768586 0.000000 -0.152881
v 0.768586 0.180167 -0.152881
v -0.651576 0.000000 -0.435369
v -0.651576 0.180167 -0.435369
v -0.707107 -0.000000 0.707107
v -0.707107 0.180167 0.707107
v -0.923880 0.000000 -0.382683
v -0.923880 0.180167 -0.382683
v 0.723993 0.000000 -0.299888
v 0.723993 0.180167 -0.299888
v -0.723993 0.000000 -0.299888
v -0.723993 0.180167 -0.299888
v -0.555570 -0.000000 0.831470
v -0.555570 0.180167 0.831470
v 0.651576 0.000000 -0.435369
v 0.651576 0.180167 -0.435369
v 0.554120 0.000000 -0.554120
v 0.554120 0.180167 -0.554120
v -0.382683 -0.000000 0.923880
v -0.382683 0.180167 0.923880
v 0.435369 0.000000 -0.651576
v 0.435369 0.180167 -0.651576
v 0.980785 -0.000000 0.195090
v 0.923880 -0.000000 0.382684
v 0.923880 0.180167 0.382684
v 0.980785 0.180167 0.195090
v -0.195090 -0.000000 0.980785
v -0.195090 0.180167 0.980785
v 0.299888 0.000000 -0.723993
v 0.299888 0.180167 -0.723993
v 0.000000 -0.000000 1.000000
v 0.000000 0.180167 1.000000
v 0.152881 0.000000 -0.768586
v 0.152881 0.180167 -0.768586
v 0.555570 -0.000000 0.831470
v 0.382683 -0.000000 0.923880
v 0.382683 0.180167 0.923880
v 0.555570 0.180167 0.831470
v 0.000000 0.000000 -0.783644
v 0.000000 0.180167 -0.783644
v -0.651576 -0.000000 0.435369
v -0.723993 -0.000000 0.299888
v 0.980785 0.000000 -0.195090
v 1.000000 0.000000 0.000000
v -0.554120 -0.000000 0.554120
v 0.923879 0.000000 -0.382684
v -0.435369 -0.000000 0.651576
v 0.831470 0.000000 -0.555570
v -0.299888 -0.000000 0.723993
v 0.000000 0.000000 -1.000000
v 0.707107 0.000000 -0.707107
v -0.152881 -0.000000 0.768586
v 0.555570 0.000000 -0.831470
v 0.000000 -0.000000 0.783644
v 0.382683 0.000000 -0.923880
v 0.195090 -0.000000 0.980785
v 0.152881 -0.000000 0.768586
v 0.195090 0.000000 -0.980785
v 0.299888 -0.000000 0.723993
v 0.435369 -0.000000 0.651576
v 0.707107 -0.000000 0.707107
v 0.554120 -0.000000 0.554120
v -0.768586 0.000000 -0.152881
v 0.831469 -0.000000 0.555570
v -0.783644 0.000000 0.000000
v -0.768586 -0.000000 0.152881
v 1.000000 0.180167 0.000000
v -0.768586 0.180167 0.152881
v -0.723993 0.180167 0.299888
v -0.783644 0.180167 0.000000
v 0.831469 0.180167 0.555570
v -0.768586 0.180167 -0.152881
v 0.707107 0.180167 0.707107
v 0.554120 0.180167 0.554120
v 0.435369 0.180167 0.651576
v 0.299888 0.180167 0.723993
v 0.000000 0.180167 -1.000000
v 0.195090 0.180167 -0.980785
v 0.195090 0.180167 0.980785
v 0.152881 0.180167 0.768586
v 0.382683 0.180167 -0.923880
v 0.000000 0.180167 0.783644
v 0.555570 0.180167 -0.831470
v -0.152881 0.180167 0.768586
v 0.707107 0.180167 -0.707107
v -0.299888 0.180167 0.723993
v 0.831470 0.180167 -0.555570
v -0.435369 0.180167 0.651576
v 0.923879 0.180167 -0.382684
v -0.554120 0.180167 0.554120
v 0.980785 0.180167 -0.195090
v -0.651576 0.180167 0.435369
vt 0.000000 0.000000
vt 0.000000 0.000000
vt 0.000000 0.000000
vt 0.000000 0.000000
vt 0.000000 0.000000
vt 0.000000 0.000000
vt 0.000000 0.000000
vt 0.000000 0.000000
vt 0.000000 0.000000
vt 0.000000 0.000000
vt 0.000000 0.000000
vt 0.000000 0.000000
vt 0.000000 0.000000
vt 0.000000 0.000000
vt 0.000000 0.000000
vt 0.000000 0.000000
vt 0.000000 0.000000
vt 0.000000 0.000000
vt 0.000000 0.000000
vt 0.000000 0.000000
vt 0.000000 0.000000
vt 0.000000 0.000000
vt 0.000000 0.000000
vt 0.000000 0.000000
vt 0.000000 0.000000
vt 0.000000 0.000000
vt 0.000000 0.000000
vt 0.000000 0.000000
vt 0.000000 0.000000
vt 0.000000 0.000000
vt 0.000000 0.000000
vt 0.000000 0.000000
vt 0.000000 0.000000
vt 0.000000 0.000000
vt 0.000000 0.000000
vt 0.000000 0.000000
vt 0.000000 0.000000
vt 0.000000 0.000000
vt 0.000000 0.000000
vt 0.000000 0.000000
vt 0.000000 0.000000
vt 0.000000 0.000000
vt 0.000000 0.000000
vt 0.000000 0.000000
vt 0.000000 0.000000
vt 0.000000 0.000000
vt 0.000000 0.000000
vt 0.000000 0.000000
vt 0.000000 0.000000
vt 0.000000 0.000000
vt 0.000000 0.000000
vt 0.000000 0.000000
vt 0.000000 0.000000
vt 0.000000 0.000000
vt 0.000000 0.000000
vt 0.000000 0.000000
vt 0.000000 0.000000
vt 0.000000 0.000000
vt 0.000000 0.000000
vt 0.000000 0.000000
vt 0.000000 0.000000
vt 0.000000 0.000000
vt 0.000000 0.000000
vt 0.000000 0.000000
vt 0.000000 0.000000
vt 0.000000 0.000000
vt 0.000000 0.000000
vt 0.000000 0.000000
vt 0.000000 0.000000
vt 0.000000 0.000000
vt 0.000000 0.000000
vt 0.000000 0.000000
vt 0.000000 0.000000
vt 0.000000 0.000000
vt 0.000000 0.000000
vt 0.000000 0.000000
vt 0.000000 0.000000
vt 0.000000 0.000000
vt 0.000000 0.000000
vt 0.000000 0.000000
vt 0.000000 0.000000
vt 0.000000 0.000000
vt 0.000000 0.000000
vt 0.000000 0.000000
vt 0.000000 0.000000
vt 0.000000 0.000000
vt 0.000000 0.000000
vt 0.000000 0.000000
vt 0.000000 0.000000
vt 0.000000 0.000000
vt 0.000000 0.000000
vt 0.000000 0.000000
vt 0.000000 0.000000
vt 0.000000 0.000000
vt 0.000000 0.000000
vt 0.000000 0.000000
vt 0.000000 0.000000
vt 0.000000 0.000000
vt 0.000000 0.000000
vt 0.000000 0.000000
vt 0.000000 0.000000
vt 0.000000 0.000000
vt 0.000000 0.000000
vt 0.000000 0.000000
vt 0.000000 0.000000
vt 0.000000 0.000000
vt 0.000000 0.000000
vt 0.000000 0.000000
vt 0.000000 0.000000
vt 0.000000 0.000000
vt 0.000000 0.000000
vt 0.000000 0.000000
vt 0.000000 0.000000
vt 0.000000 0.000000
vt 0.000000 0.000000
vt 0.000000 0.000000
vt 0.000000 0.000000
vt 0.000000 0.000000
vt 0.000000 0.000000
vt 0.000000 0.000000
vt 0.000000 0.000000
vt 0.000000 0.000000
vt 0.000000 0.000000
vt 0.000000 0.000000
vt 0.000000 0.000000
vt 0.000000 0.000000
vt 0.000000 0.000000
vt 0.000000 0.000000
vn -0.1951 0.0000 -0.9808
vn -0.3827 0.0000 -0.9239
vn 1.0000 0.0000 0.0000
vn 0.9808 0.0000 0.1951
vn 0.3827 0.0000 0.9239
vn 0.1951 0.0000 0.9808
vn 0.8315 0.0000 0.5556
vn 0.9239 0.0000 0.3827
vn -0.5556 0.0000 -0.8315
vn 0.9808 0.0000 -0.1951
vn 0.5556 0.0000 0.8315
vn 0.9239 0.0000 -0.3827
vn 0.7071 0.0000 0.7071
vn -0.7071 0.0000 -0.7071
vn 0.8315 0.0000 -0.5556
vn -0.8315 0.0000 -0.5556
vn 0.7071 0.0000 -0.7071
vn -0.9239 0.0000 -0.3827
vn 0.5556 0.0000 -0.8315
vn 0.3827 0.0000 -0.9239
vn -0.9808 0.0000 -0.1951
vn 0.1951 0.0000 -0.9808
vn 0.0000 0.0000 -1.0000
vn 0.0000 1.0000 0.0000
vn 0.0000 -1.0000 -0.0000
vn 0.0000 0.0000 1.0000
vn -0.1951 0.0000 0.9808
vn -0.3827 0.0000 0.9239
vn -0.5556 0.0000 0.8315
vn -0.7071 0.0000 0.7071
vn -0.8315 0.0000 0.5556
vn -0.9239 0.0000 0.3827
vn -0.9808 0.0000 0.1951
vn -1.0000 0.0000 0.0000
usemtl None
s 1
f 1/1/1 2/2/2 3/3/2 4/4/1
f 5/5/3 6/6/4 7/7/4 8/8/3
f 9/9/5 10/10/6 11/11/6 12/12/5
f 13/13/7 14/14/8 15/15/8 16/16/7
f 2/2/2 17/17/9 18/18/9 3/3/2
f 19/19/10 5/5/3 8/8/3 20/20/10
f 21/21/11 9/9/5 12/12/5 22/22/11
f 14/14/8 23/23/4 24/24/4 15/15/8
f 25/25/12 19/19/10 20/20/10 26/26/12
f 27/27/13 21/21/11 22/22/11 28/28/13
f 23/23/4 29/29/3 30/30/3 24/24/4
f 17/17/9 31/31/14 32/32/14 18/18/9
f 33/33/15 25/25/12 26/26/12 34/34/15
f 35/35/7 27/27/13 28/28/13 36/36/7
f 29/29/3 37/37/10 38/38/10 30/30/3
f 31/31/14 39/39/16 40/40/16 32/32/14
f 41/41/17 33/33/15 34/34/15 42/42/17
f 6/6/4 43/43/8 44/44/8 7/7/4
f 37/37/10 45/45/12 46/46/12 38/38/10
f 39/39/16 47/47/18 48/48/18 40/40/16
f 49/49/19 41/41/17 42/42/17 50/50/19
f 45/45/12 51/51/15 52/52/15 46/46/12
f 51/51/15 53/53/17 54/54/17 52/52/15
f 55/55/20 49/49/19 50/50/19 56/56/20
f 53/53/17 57/57/19 58/58/19 54/54/17
f 59/59/21 60/60/18 61/61/18 62/62/21
f 63/63/22 55/55/20 56/56/20 64/64/22
f 57/57/19 65/65/20 66/66/20 58/58/19
f 67/67/23 63/63/22 64/64/22 68/68/23
f 65/65/20 69/69/22 70/70/22 66/66/20
f 71/71/9 72/72/2 73/73/2 74/74/9
f 69/69/22 75/75/23 76/76/23 70/70/22
f 33/33/24 77/77/24 78/78/24 25/25/24
f 79/79/24 37/37/24 29/29/24 80/80/24
f 41/41/24 81/81/24 77/77/24 33/33/24
f 82/82/24 45/45/24 37/37/24 79/79/24
f 49/49/24 83/83/24 81/81/24 41/41/24
f 84/84/24 51/51/24 45/45/24 82/82/24
f 55/55/24 85/85/24 83/83/24 49/49/24
f 10/10/24 1/1/24 75/75/24 86/86/24
f 87/87/24 53/53/24 51/51/24 84/84/24
f 63/63/24 88/88/24 85/85/24 55/55/24
f 9/9/24 2/2/24 1/1/24 10/10/24
f 89/89/24 57/57/24 53/53/24 87/87/24
f 67/67/24 90/90/24 88/88/24 63/63/24
f 21/21/24 17/17/24 2/2/24 9/9/24
f 91/91/24 65/65/24 57/57/24 89/89/24
f 92/92/24 93/93/24 90/90/24 67/67/24
f 27/27/24 31/31/24 17/17/24 21/21/24
f 94/94/24 69/69/24 65/65/24 91/91/24
f 72/72/24 95/95/24 93/93/24 92/92/24
f 35/35/24 39/39/24 31/31/24 27/27/24
f 86/86/24 75/75/24 69/69/24 94/94/24
f 71/71/24 96/96/24 95/95/24 72/72/24
f 43/43/24 47/47/24 39/39/24 35/35/24
f 97/97/24 98/98/24 96/96/24 71/71/24
f 6/6/24 99/99/24 47/47/24 43/43/24
f 100/100/24 13/13/24 98/98/24 97/97/24
f 5/5/24 101/101/24 99/99/24 6/6/24
f 60/60/24 14/14/24 13/13/24 100/100/24
f 19/19/24 102/102/24 101/101/24 5/5/24
f 59/59/24 23/23/24 14/14/24 60/60/24
f 25/25/24 78/78/24 102/102/24 19/19/24
f 80/80/24 29/29/24 23/23/24 59/59/24
f 103/103/25 62/62/25 24/24/25 30/30/25
f 26/26/25 20/20/25 104/104/25 105/105/25
f 62/62/25 61/61/25 15/15/25 24/24/25
f 20/20/25 8/8/25 106/106/25 104/104/25
f 61/61/25 107/107/25 16/16/25 15/15/25
f 8/8/25 7/7/25 108/108/25 106/106/25
f 107/107/25 109/109/25 110/110/25 16/16/25
f 7/7/25 44/44/25 48/48/25 108/108/25
f 109/109/25 74/74/25 111/111/25 110/110/25
f 44/44/25 36/36/25 40/40/25 48/48/25
f 74/74/25 73/73/25 112/112/25 111/111/25
f 113/113/25 114/114/25 70/70/25 76/76/25
f 36/36/25 28/28/25 32/32/25 40/40/25
f 73/73/25 115/115/25 116/116/25 112/112/25
f 114/114/25 117/117/25 66/66/25 70/70/25
f 28/28/25 22/22/25 18/18/25 32/32/25
f 115/115/25 68/68/25 118/118/25 116/116/25
f 117/117/25 119/119/25 58/58/25 66/66/25
f 22/22/25 12/12/25 3/3/25 18/18/25
f 68/68/25 64/64/25 120/120/25 118/118/25
f 119/119/25 121/121/25 54/54/25 58/58/25
f 12/12/25 11/11/25 4/4/25 3/3/25
f 64/64/25 56/56/25 122/122/25 120/120/25
f 121/121/25 123/123/25 52/52/25 54/54/25
f 11/11/25 113/113/25 76/76/25 4/4/25
f 56/56/25 50/50/25 124/124/25 122/122/25
f 123/123/25 125/125/25 46/46/25 52/52/25
f 50/50/25 42/42/25 126/126/25 124/124/25
f 125/125/25 127/127/25 38/38/25 46/46/25
f 42/42/25 34/34/25 128/128/25 126/126/25
f 127/127/25 103/103/25 30/30/25 38/38/25
f 34/34/25 26/26/25 105/105/25 128/128/25
f 98/98/13 13/13/7 16/16/7 110/110/13
f 10/10/6 86/86/26 113/113/26 11/11/6
f 75/75/23 1/1/1 4/4/1 76/76/23
f 96/96/11 98/98/13 110/110/13 111/111/11
f 94/94/27 91/91/28 117/117/28 114/114/27
f 95/95/5 96/96/11 111/111/11 112/112/5
f 93/93/6 95/95/5 112/112/5 116/116/6
f 91/91/28 89/89/29 119/119/29 117/117/28
f 90/90/26 93/93/6 116/116/6 118/118/26
f 72/72/2 92/92/1 115/115/1 73/73/2
f 88/88/27 90/90/26 118/118/26 120/120/27
f 92/92/1 67/67/23 68/68/23 115/115/1
f 85/85/28 88/88/27 120/120/27 122/122/28
f 86/86/26 94/94/27 114/114/27 113/113/26
f 43/43/8 35/35/7 36/36/7 44/44/8
f 83/83/29 85/85/28 122/122/28 124/124/29
f 89/89/29 87/87/30 121/121/30 119/119/29
f 87/87/30 84/84/31 123/123/31 121/121/30
f 81/81/30 83/83/29 124/124/29 126/126/30
f 77/77/31 81/81/30 126/126/30 128/128/31
f 84/84/31 82/82/32 125/125/32 123/123/31
f 78/78/32 77/77/31 128/128/31 105/105/32
f 82/82/32 79/79/33 127/127/33 125/125/32
f 102/102/33 78/78/32 105/105/32 104/104/33
f 79/79/33 80/80/34 103/103/34 127/127/33
f 101/101/34 102/102/33 104/104/33 106/106/34
f 60/60/18 100/100/16 107/107/16 61/61/18
f 99/99/21 101/101/34 106/106/34 108/108/21
f 100/100/16 97/97/14 109/109/14 107/107/16
f 80/80/34 59/59/21 62/62/21 103/103/34
f 47/47/18 99/99/21 108/108/21 48/48/18
f 97/97/14 71/71/9 74/74/9 109/109/14
