# Blender v2.93.4 OBJ File: 'ONLYcRYSTALS.blend'
# www.blender.org
mtllib antiMatter.mtl
o outer_outer
v 0.005740 -0.198926 -0.004173
v 0.081548 -0.151094 0.054035
v -0.024836 -0.128336 0.075483
v -0.097608 -0.158267 -0.004173
v -0.024836 -0.128336 -0.083829
v 0.069928 -0.128335 -0.053403
v 0.027547 0.126845 0.075483
v -0.099085 0.186137 0.067936
v -0.088780 0.166967 -0.068884
v 0.027547 0.126845 -0.083829
v 0.086116 0.126844 -0.004173
v 0.001356 0.284551 -0.004173
v -0.014040 -0.243434 0.042648
v 0.035393 -0.160980 0.019522
v 0.025088 -0.143645 0.068002
v 0.081967 -0.150736 -0.004173
v 0.041661 -0.243434 -0.033109
v -0.038208 -0.193465 -0.004173
v -0.063861 -0.150736 0.042648
v -0.019240 -0.322492 -0.058635
v -0.063861 -0.150736 -0.050993
v 0.026266 -0.150736 -0.079930
v 0.091482 -0.000745 0.024764
v 0.091482 -0.000745 -0.033109
v 0.001356 -0.000745 0.089469
v 0.057057 -0.000745 0.071585
v -0.088771 -0.000745 0.024764
v -0.054346 -0.000745 0.071585
v -0.054346 -0.000745 -0.079931
v -0.088771 -0.000745 -0.033109
v 0.057057 -0.000745 -0.079931
v 0.001356 -0.000745 -0.097815
v 0.066572 0.149245 0.042648
v -0.023555 0.149246 0.071584
v -0.104115 0.195500 -0.009935
v -0.023555 0.149246 -0.079930
v 0.076308 0.171638 -0.057983
v 0.020703 0.304257 0.054669
v 0.051176 0.241942 -0.004173
v -0.034135 0.181184 0.015688
v -0.050704 0.366963 -0.044619
v 0.019049 0.278175 -0.057983
vt 0.278269 0.254192
vt 0.278269 0.254192
vt 0.278269 0.254192
vt 0.278269 0.254192
vt 0.278269 0.254192
vt 0.278269 0.254192
vt 0.278269 0.254192
vt 0.278269 0.254192
vt 0.278269 0.254192
vt 0.278269 0.254192
vt 0.278269 0.254192
vt 0.278269 0.254192
vt 0.278269 0.254192
vt 0.278269 0.254192
vt 0.278269 0.254192
vt 0.278269 0.254192
vt 0.278269 0.254192
vt 0.278269 0.254192
vt 0.278269 0.254192
vt 0.278269 0.254192
vt 0.278269 0.254192
vt 0.278269 0.254192
vt 0.278269 0.254192
vt 0.278269 0.254192
vt 0.278269 0.254192
vt 0.278269 0.254192
vt 0.278269 0.254192
vt 0.278269 0.254192
vt 0.278269 0.254192
vt 0.278269 0.254192
vt 0.278269 0.254192
vt 0.278269 0.254192
vt 0.278269 0.254192
vt 0.278269 0.254192
vt 0.278269 0.254192
vt 0.278269 0.254192
vt 0.278269 0.254192
vt 0.278269 0.254192
vt 0.278269 0.254192
vt 0.278269 0.254192
vt 0.278269 0.254192
vt 0.278269 0.254192
vn 0.8246 -0.5409 -0.1658
vn 0.2126 -0.9771 -0.0045
vn -0.0874 -0.7033 -0.7055
vn -0.0490 -0.3945 0.9176
vn 0.1837 -0.4273 0.8853
vn 0.9979 -0.0646 0.0068
vn 0.1078 -0.1302 0.9856
vn -0.8048 -0.0633 0.5902
vn -0.6002 -0.1146 -0.7916
vn 0.5581 -0.1146 -0.8218
vn 0.8041 0.0620 0.5912
vn -0.3054 -0.0416 0.9513
vn -0.9984 0.0560 0.0000
vn -0.3054 -0.0416 -0.9513
vn 0.8050 -0.0419 -0.5918
vn 0.5996 0.1160 0.7918
vn 0.3862 0.8305 0.4014
vn -0.9145 0.2156 -0.3423
vn -0.0014 0.1683 -0.9857
vn 0.9547 0.2898 0.0672
vn 0.6450 0.7542 0.1227
vn 0.8625 0.4636 -0.2028
vn 0.3291 0.1769 -0.9276
vn 0.7858 0.5890 0.1886
vn 0.0174 0.1622 -0.9866
vn -0.1273 0.1433 -0.9815
vn -0.2817 0.2734 0.9197
vn -0.2809 0.2736 0.9199
vn 0.1613 0.9810 0.1075
vn -0.9181 0.3507 0.1845
vn -0.8952 0.2923 0.3365
vn -0.0251 0.1155 0.9930
vn 0.5886 0.6883 -0.4240
vn 0.9419 0.2624 0.2099
vn 0.9260 0.2811 0.2520
vn 0.9900 0.0695 -0.1226
vn 0.8056 -0.0146 -0.5923
vn 0.4172 0.0688 -0.9062
vn -0.0257 0.1141 -0.9931
vn -0.3051 0.0626 -0.9503
vn -0.1583 0.0325 -0.9869
vn -0.9721 -0.0489 -0.2292
vn -0.9970 -0.0780 0.0000
vn -0.9961 -0.0680 0.0562
vn -0.0439 0.0090 0.9990
vn -0.3051 0.0626 0.9503
vn -0.0257 0.1141 0.9931
vn 0.6002 0.1146 0.7916
vn 0.8041 0.0630 0.5912
vn 0.9351 0.1153 0.3351
vn 0.3054 0.0416 -0.9513
vn 0.3051 -0.0626 -0.9503
vn 0.0257 -0.1141 -0.9931
vn -0.7993 -0.1254 -0.5877
vn -0.8041 -0.0630 -0.5912
vn -0.8048 -0.0633 -0.5902
vn -0.7927 -0.1784 0.5829
vn -0.8041 -0.0630 0.5912
vn -0.6002 -0.1146 0.7916
vn 0.3054 0.0416 0.9513
vn 0.3044 -0.0919 0.9481
vn 0.2300 -0.0758 0.9702
vn 0.9991 0.0420 0.0000
vn 0.9980 -0.0633 0.0000
vn 0.9515 -0.1154 -0.2852
vn 0.5992 -0.2794 -0.7503
vn 0.6398 -0.2592 -0.7235
vn 0.0195 -0.1281 -0.9916
vn -0.5979 -0.1201 -0.7925
vn -0.9270 -0.2531 0.2769
vn -0.4549 -0.7677 -0.4514
vn -0.4549 -0.7677 0.4514
vn -0.8797 -0.4728 -0.0505
vn -0.5194 -0.2791 0.8077
vn 0.8949 -0.2809 -0.3467
vn 0.4819 -0.4451 0.7547
vn 0.0136 -0.5373 0.8433
vn 0.0617 -0.2685 0.9613
vn 0.8478 -0.4160 0.3289
vn -0.0433 -0.9436 0.3282
usemtl Material.007
s off
f 1/1/1 14/2/1 13/3/1
f 2/4/2 14/2/2 16/5/2
f 1/1/3 13/3/3 18/6/3
f 1/1/4 18/6/4 20/7/4
f 1/1/5 20/7/5 17/8/5
f 2/4/6 16/5/6 23/9/6
f 3/10/7 15/11/7 25/12/7
f 4/13/8 19/14/8 27/15/8
f 5/16/9 21/17/9 29/18/9
f 6/19/10 22/20/10 31/21/10
f 2/4/11 23/9/11 26/22/11
f 3/10/12 25/12/12 28/23/12
f 4/13/13 27/15/13 30/24/13
f 5/16/14 29/18/14 32/25/14
f 6/19/15 31/21/15 24/26/15
f 7/27/16 33/28/16 38/29/16
f 8/30/17 34/31/17 40/32/17
f 9/33/18 35/34/18 41/35/18
f 10/36/19 36/37/19 42/38/19
f 11/39/20 37/40/20 39/41/20
f 39/41/21 42/38/21 12/42/21
f 39/41/22 37/40/22 42/38/22
f 37/40/23 10/36/23 42/38/23
f 42/38/24 41/35/24 12/42/24
f 42/38/25 36/37/25 41/35/25
f 36/37/26 9/33/26 41/35/26
f 41/35/27 40/32/27 12/42/27
f 41/35/28 35/34/28 40/32/28
f 35/34/29 8/30/29 40/32/29
f 40/32/30 38/29/30 12/42/30
f 40/32/31 34/31/31 38/29/31
f 34/31/32 7/27/32 38/29/32
f 38/29/33 39/41/33 12/42/33
f 38/29/34 33/28/34 39/41/34
f 33/28/35 11/39/35 39/41/35
f 24/26/36 37/40/36 11/39/36
f 24/26/37 31/21/37 37/40/37
f 31/21/38 10/36/38 37/40/38
f 32/25/39 36/37/39 10/36/39
f 32/25/40 29/18/40 36/37/40
f 29/18/41 9/33/41 36/37/41
f 30/24/42 35/34/42 9/33/42
f 30/24/43 27/15/43 35/34/43
f 27/15/44 8/30/44 35/34/44
f 28/23/45 34/31/45 8/30/45
f 28/23/46 25/12/46 34/31/46
f 25/12/47 7/27/47 34/31/47
f 26/22/48 33/28/48 7/27/48
f 26/22/49 23/9/49 33/28/49
f 23/9/50 11/39/50 33/28/50
f 31/21/51 32/25/51 10/36/51
f 31/21/52 22/20/52 32/25/52
f 22/20/53 5/16/53 32/25/53
f 29/18/54 30/24/54 9/33/54
f 29/18/55 21/17/55 30/24/55
f 21/17/56 4/13/56 30/24/56
f 27/15/57 28/23/57 8/30/57
f 27/15/58 19/14/58 28/23/58
f 19/14/59 3/10/59 28/23/59
f 25/12/60 26/22/60 7/27/60
f 25/12/61 15/11/61 26/22/61
f 15/11/62 2/4/62 26/22/62
f 23/9/63 24/26/63 11/39/63
f 23/9/64 16/5/64 24/26/64
f 16/5/65 6/19/65 24/26/65
f 17/8/66 22/20/66 6/19/66
f 17/8/67 20/7/67 22/20/67
f 20/7/68 5/16/68 22/20/68
f 20/7/69 21/17/69 5/16/69
f 20/7/70 18/6/70 21/17/70
f 18/6/71 4/13/71 21/17/71
f 18/6/72 19/14/72 4/13/72
f 18/6/73 13/3/73 19/14/73
f 13/3/74 3/10/74 19/14/74
f 16/5/75 17/8/75 6/19/75
f 16/5/76 14/2/76 17/8/76
f 14/2/77 1/1/77 17/8/77
f 13/3/78 15/11/78 3/10/78
f 13/3/79 14/2/79 15/11/79
f 14/2/80 2/4/80 15/11/80
o inner_inner
v -0.026082 -0.102517 -0.059686
v -0.012533 0.081893 -0.052350
v 0.002428 0.024660 -0.054560
v 0.014011 0.109322 -0.038912
v 0.006620 -0.049436 -0.041044
v -0.009567 0.149870 -0.029270
v 0.038962 0.041757 -0.048430
v 0.024366 0.182323 -0.021377
v 0.020807 0.014353 -0.024636
v -0.002364 -0.083271 -0.022584
v 0.026897 0.010655 0.006068
v 0.025371 0.091867 -0.004207
v -0.007315 0.150266 -0.002380
v 0.032058 -0.137103 -0.007349
v 0.025659 0.132615 0.044577
v 0.001180 -0.035271 0.013961
v -0.023101 0.077965 0.039462
v -0.019834 -0.013533 0.015656
v -0.071437 0.053699 0.010118
v -0.015708 -0.078717 -0.005080
v -0.038938 -0.027018 -0.006027
v -0.046124 0.048011 -0.025881
v -0.031007 0.131778 -0.011030
v -0.026176 -0.068351 -0.022187
v -0.034578 0.009042 -0.043760
v -0.038164 0.156334 -0.055183
vt 0.717667 0.718130
vt 0.717667 0.718130
vt 0.717667 0.718130
vt 0.717667 0.718130
vt 0.717667 0.718130
vt 0.717667 0.718130
vt 0.717667 0.718130
vt 0.717667 0.718130
vt 0.717667 0.718130
vt 0.717667 0.718130
vt 0.717667 0.718130
vt 0.717667 0.718130
vt 0.717667 0.718130
vt 0.717667 0.718130
vt 0.717667 0.718130
vt 0.717667 0.718130
vt 0.717667 0.718130
vt 0.717667 0.718130
vt 0.717667 0.718130
vt 0.717667 0.718130
vt 0.717667 0.718130
vt 0.717667 0.718130
vt 0.717667 0.718130
vt 0.717667 0.718130
vt 0.717667 0.718130
vt 0.717667 0.718130
vn 0.6179 -0.1071 -0.7789
vn 0.1526 0.3118 -0.9378
vn 0.0853 0.1698 -0.9818
vn 0.8919 -0.2880 0.3487
vn 0.9408 -0.0531 -0.3347
vn 0.8690 -0.1733 0.4635
vn 0.9807 -0.0063 -0.1953
vn 0.9808 0.0514 -0.1883
vn 0.7989 0.4593 -0.3884
vn -0.7175 -0.5715 -0.3983
vn 0.6330 -0.2273 0.7401
vn -0.3015 -0.2820 0.9108
vn 0.1158 -0.1945 0.9740
vn -0.1858 -0.2536 0.9493
vn -0.2444 -0.3080 0.9195
vn -0.4112 -0.2433 0.8785
vn -0.5673 -0.3751 0.7331
vn -0.6106 0.4923 0.6203
vn -0.6187 0.4873 0.6162
vn -0.8723 -0.3865 0.2996
vn -0.8140 -0.2202 -0.5375
vn -0.9511 -0.1609 -0.2636
vn -0.5242 -0.8317 -0.1832
vn -0.9933 -0.0865 0.0764
vn -0.1221 -0.0797 -0.9893
vn -0.4121 -0.6740 0.6131
vn 0.6822 0.2082 -0.7009
vn 0.3420 0.1254 -0.9313
vn 0.2363 -0.1614 -0.9582
vn 0.0033 0.2331 -0.9724
vn 0.7812 -0.0132 -0.6241
vn -0.2541 -0.4104 -0.8758
vn -0.6962 0.7163 0.0477
vn 0.9253 0.3590 -0.1224
vn 0.3679 0.1774 0.9128
vn 0.4029 -0.0688 0.9126
vn 0.9997 0.0163 -0.0195
vn -0.6152 0.4912 0.6167
vn -0.6324 -0.2709 0.7257
vn -0.6239 0.7804 0.0407
vn -0.7749 0.2433 -0.5833
vn -0.9423 -0.1808 -0.2817
vn -0.9640 0.1331 0.2303
vn -0.2680 0.8228 0.5011
vn -0.8905 -0.0567 -0.4515
vn -0.2673 -0.0327 -0.9631
vn -0.3209 0.1099 -0.9407
vn 0.8506 -0.4073 -0.3325
usemtl Material
s off
f 45/43/81 47/44/81 43/45/81
f 48/46/82 46/47/82 44/48/82
f 46/47/83 49/49/83 45/43/83
f 47/44/84 49/49/84 51/50/84
f 46/47/85 50/51/85 54/52/85
f 49/49/86 54/52/86 51/50/86
f 51/50/87 54/52/87 53/53/87
f 51/50/88 53/53/88 56/54/88
f 55/55/89 57/56/89 54/52/89
f 52/57/90 56/54/90 62/58/90
f 57/56/91 58/59/91 53/53/91
f 56/54/92 58/59/92 62/58/92
f 57/56/93 59/60/93 58/59/93
f 58/59/94 59/60/94 60/61/94
f 60/61/95 62/58/95 58/59/95
f 59/60/96 61/62/96 60/61/96
f 60/61/97 61/62/97 63/63/97
f 55/55/98 65/64/98 59/60/98
f 59/60/99 65/64/99 61/62/99
f 62/58/100 63/63/100 66/65/100
f 61/62/101 64/66/101 63/63/101
f 64/66/102 67/67/102 63/63/102
f 66/65/103 52/57/103 62/58/103
f 67/67/104 43/45/104 66/65/104
f 67/67/105 68/68/105 44/48/105
f 43/45/106 52/57/106 66/65/106
f 68/68/107 48/46/107 44/48/107
f 45/43/108 44/48/108 46/47/108
f 45/43/109 49/49/109 47/44/109
f 48/46/110 50/51/110 46/47/110
f 47/44/111 51/50/111 56/54/111
f 52/57/112 47/44/112 56/54/112
f 48/46/113 55/55/113 50/51/113
f 49/49/114 46/47/114 54/52/114
f 50/51/115 55/55/115 54/52/115
f 56/54/116 53/53/116 58/59/116
f 53/53/117 54/52/117 57/56/117
f 59/60/118 57/56/118 55/55/118
f 60/61/119 63/63/119 62/58/119
f 55/55/120 48/46/120 65/64/120
f 61/62/121 65/64/121 64/66/121
f 63/63/122 67/67/122 66/65/122
f 64/66/123 65/64/123 68/68/123
f 65/64/124 48/46/124 68/68/124
f 67/67/125 64/66/125 68/68/125
f 67/67/126 44/48/126 45/43/126
f 67/67/127 45/43/127 43/45/127
f 43/45/128 47/44/128 52/57/128
