# Blender v2.93.4 OBJ File: 'sword2.blend'
# www.blender.org
mtllib sword2.mtl
o base_Cube.002
v 2.367988 -0.114780 0.192460
v 2.367988 0.445470 0.192460
v 2.367988 -0.114780 -0.193404
v 2.367988 0.445470 -0.193404
v 1.968274 -0.114780 0.192460
v 1.781996 -0.114780 0.069800
v 1.781996 0.445470 0.069800
v 1.968274 0.445470 0.192460
v 1.781996 -0.114780 -0.070744
v 1.968274 -0.114780 -0.193404
v 1.968274 0.445470 -0.193404
v 1.781996 0.445470 -0.070744
vt 0.625000 0.750000
vt 0.375000 0.920529
vt 0.375000 0.750000
vt 0.625000 0.500000
vt 0.375000 0.500000
vt 0.795529 0.750000
vt 0.795529 0.500000
vt 0.625000 0.079471
vt 0.375000 0.170529
vt 0.375000 0.079471
vt 0.625000 0.329471
vt 0.375000 0.329471
vt 0.625000 0.000000
vt 0.375000 0.000000
vt 0.625000 0.170529
vt 0.204471 0.750000
vt 0.125000 0.670529
vt 0.204471 0.500000
vt 0.625000 0.920529
vt 0.875000 0.579471
vt 0.875000 0.670529
vt 0.125000 0.579471
vn 0.0000 0.0000 1.0000
vn 1.0000 0.0000 0.0000
vn 0.0000 1.0000 0.0000
vn -1.0000 0.0000 0.0000
vn 0.0000 0.0000 -1.0000
vn -0.5500 0.0000 0.8352
vn -0.5500 0.0000 -0.8352
vn 0.0000 -1.0000 0.0000
usemtl None
s off
f 2/1/1 5/2/1 1/3/1
f 4/4/2 1/3/2 3/5/2
f 8/6/3 2/1/3 11/7/3
f 7/8/4 9/9/4 6/10/4
f 11/11/5 3/5/5 10/12/5
f 8/13/6 6/10/6 5/14/6
f 10/12/7 12/15/7 11/11/7
f 5/16/8 6/17/8 10/18/8
f 2/1/1 8/19/1 5/2/1
f 4/4/2 2/1/2 1/3/2
f 2/1/3 4/4/3 11/7/3
f 11/7/3 12/20/3 7/21/3
f 7/21/3 8/6/3 11/7/3
f 7/8/4 12/15/4 9/9/4
f 11/11/5 4/4/5 3/5/5
f 8/13/6 7/8/6 6/10/6
f 10/12/7 9/9/7 12/15/7
f 6/17/8 9/22/8 10/18/8
f 10/18/8 3/5/8 1/3/8
f 1/3/8 5/16/8 10/18/8
o handle_Cube.003
v 2.362132 0.093443 0.071430
v 2.362132 0.237247 0.071430
v 2.362132 0.093443 -0.072374
v 2.362132 0.237247 -0.072374
v 3.057071 0.093443 0.071430
v 3.057071 0.237247 0.071430
v 3.057071 0.093443 -0.072374
v 3.057071 0.237247 -0.072374
vt 0.625000 0.000000
vt 0.375000 0.250000
vt 0.375000 0.000000
vt 0.625000 0.250000
vt 0.375000 0.500000
vt 0.625000 0.500000
vt 0.375000 0.750000
vt 0.625000 0.750000
vt 0.375000 1.000000
vt 0.125000 0.750000
vt 0.125000 0.500000
vt 0.875000 0.500000
vt 0.625000 1.000000
vt 0.875000 0.750000
vn -1.0000 0.0000 0.0000
vn 0.0000 0.0000 -1.0000
vn 1.0000 0.0000 0.0000
vn 0.0000 0.0000 1.0000
vn 0.0000 -1.0000 0.0000
vn 0.0000 1.0000 0.0000
usemtl None
s off
f 14/23/9 15/24/9 13/25/9
f 16/26/10 19/27/10 15/24/10
f 20/28/11 17/29/11 19/27/11
f 18/30/12 13/31/12 17/29/12
f 19/27/13 13/32/13 15/33/13
f 16/34/14 18/30/14 20/28/14
f 14/23/9 16/26/9 15/24/9
f 16/26/10 20/28/10 19/27/10
f 20/28/11 18/30/11 17/29/11
f 18/30/12 14/35/12 13/31/12
f 19/27/13 17/29/13 13/32/13
f 16/34/14 14/36/14 18/30/14
o reservoir_Cube.004
v 3.053146 0.040288 0.124585
v 3.053146 0.290402 0.124585
v 3.053146 0.040288 -0.125529
v 3.053146 0.290402 -0.125529
v 3.303260 0.040288 0.124585
v 3.303260 0.290402 0.124585
v 3.303260 0.040288 -0.125529
v 3.303260 0.290402 -0.125529
vt 0.625000 0.000000
vt 0.375000 0.250000
vt 0.375000 0.000000
vt 0.625000 0.250000
vt 0.375000 0.500000
vt 0.625000 0.500000
vt 0.375000 0.750000
vt 0.625000 0.750000
vt 0.375000 1.000000
vt 0.125000 0.750000
vt 0.125000 0.500000
vt 0.875000 0.500000
vt 0.625000 1.000000
vt 0.875000 0.750000
vn -1.0000 0.0000 0.0000
vn 0.0000 0.0000 -1.0000
vn 1.0000 0.0000 0.0000
vn 0.0000 0.0000 1.0000
vn 0.0000 -1.0000 0.0000
vn 0.0000 1.0000 0.0000
usemtl None
s off
f 22/37/15 23/38/15 21/39/15
f 24/40/16 27/41/16 23/38/16
f 28/42/17 25/43/17 27/41/17
f 26/44/18 21/45/18 25/43/18
f 27/41/19 21/46/19 23/47/19
f 24/48/20 26/44/20 28/42/20
f 22/37/15 24/40/15 23/38/15
f 24/40/16 28/42/16 27/41/16
f 28/42/17 26/44/17 25/43/17
f 26/44/18 22/49/18 21/45/18
f 27/41/19 25/43/19 21/46/19
f 24/48/20 22/50/20 26/44/20
o blade_Cube
v -2.394755 0.401295 -0.000727
v -2.394755 0.401295 -0.000727
v -1.946033 0.401496 0.042443
v -1.946033 0.401496 -0.042932
v 1.784001 0.401496 0.042442
v 1.784001 0.401496 -0.042933
v -1.946033 -0.073466 -0.000244
v -1.946033 0.164015 0.042443
v -1.946033 0.164015 -0.042932
v -1.946033 -0.073466 -0.000244
v 1.784001 0.164015 0.042442
v 1.784001 -0.073466 -0.000246
v 1.784001 -0.073466 -0.000246
v 1.784001 0.164015 -0.042933
vt 0.625000 0.750000
vt 0.500000 1.000000
vt 0.500000 0.750000
vt 0.375000 0.625000
vt 0.500000 0.500000
vt 0.625000 0.250000
vt 0.500000 0.250000
vt 0.375000 0.125000
vt 0.500000 0.000000
vt 0.875000 0.500000
vt 0.625000 0.500000
vt 0.375000 0.625000
vt 0.125000 0.500000
vt 0.375000 0.500000
vt 0.125000 0.625000
vt 0.375000 0.750000
vt 0.125000 0.750000
vt 0.125000 0.625000
vt 0.000000 0.000000
vt 0.625000 0.000000
vt 0.625000 1.000000
vt 0.375000 0.125000
vt 0.875000 0.750000
vn 0.0000 -0.0000 1.0000
vn 1.0000 0.0000 0.0000
vn -0.0000 0.0000 -1.0000
vn -1.0000 -0.0000 0.0000
vn -0.0000 1.0000 -0.0000
vn -0.0000 -0.1769 -0.9842
vn 0.0000 -0.1769 0.9842
vn -0.0004 1.0000 0.0000
vn -0.0936 0.0000 -0.9956
vn -0.1830 -0.1739 -0.9676
vn 0.0958 0.0000 -0.9954
vn -0.1850 -0.1739 0.9672
usemtl None
s off
f 33/51/21 36/52/21 39/53/21
f 39/53/22 40/54/22 42/55/22
f 32/56/23 42/55/23 37/57/23
f 37/57/24 38/58/24 36/59/24
f 32/60/25 33/51/25 34/61/25
f 41/62/26 37/63/26 42/64/26
f 35/65/27 39/66/27 36/67/27
f 38/68/21 40/54/21 35/65/21
f 30/69/28 31/70/28 32/56/28
f 37/57/29 30/69/29 32/56/29
f 38/58/30 30/69/30 37/57/30
f 36/52/31 30/69/31 31/70/31
f 30/69/32 38/58/32 36/52/32
f 33/51/21 31/71/21 36/52/21
f 40/54/21 41/62/21 42/55/21
f 42/55/22 34/61/22 33/51/22
f 33/51/22 39/53/22 42/55/22
f 32/56/23 34/61/23 42/55/23
f 38/58/21 35/72/21 36/59/21
f 36/59/24 31/70/24 32/56/24
f 32/56/24 37/57/24 36/59/24
f 32/60/25 31/73/25 33/51/25
f 41/62/26 38/68/26 37/63/26
f 35/65/27 40/54/27 39/66/27
f 38/68/21 41/62/21 40/54/21
l 29 30
o Cube.005_Cube.006
v 3.302758 0.127412 0.044299
v 3.302758 0.217398 0.044299
v 3.302758 0.127412 -0.045687
v 3.302758 0.217398 -0.045687
v 3.438166 0.127412 0.044299
v 3.438166 0.217398 0.044299
v 3.438166 0.127412 -0.045687
v 3.438166 0.217398 -0.045687
vt 0.625000 0.000000
vt 0.375000 0.250000
vt 0.375000 0.000000
vt 0.625000 0.250000
vt 0.375000 0.500000
vt 0.625000 0.500000
vt 0.375000 0.750000
vt 0.625000 0.750000
vt 0.375000 1.000000
vt 0.125000 0.750000
vt 0.125000 0.500000
vt 0.875000 0.500000
vt 0.625000 1.000000
vt 0.875000 0.750000
vn -1.0000 0.0000 0.0000
vn 0.0000 0.0000 -1.0000
vn 1.0000 0.0000 0.0000
vn 0.0000 0.0000 1.0000
vn 0.0000 -1.0000 0.0000
vn 0.0000 1.0000 0.0000
usemtl None
s off
f 44/74/33 45/75/33 43/76/33
f 46/77/34 49/78/34 45/75/34
f 50/79/35 47/80/35 49/78/35
f 48/81/36 43/82/36 47/80/36
f 49/78/37 43/83/37 45/84/37
f 46/85/38 48/81/38 50/79/38
f 44/74/33 46/77/33 45/75/33
f 46/77/34 50/79/34 49/78/34
f 50/79/35 48/81/35 47/80/35
f 48/81/36 44/86/36 43/82/36
f 49/78/37 47/80/37 43/83/37
f 46/85/38 44/87/38 48/81/38
o Cube.006_Cube.008
v 3.436529 0.127818 0.041663
v 3.376597 0.187691 0.041663
v 3.436529 0.127818 -0.043051
v 3.376597 0.187691 -0.043051
v 3.605106 0.296561 0.041663
v 3.545174 0.356434 0.041663
v 3.605106 0.296561 -0.043051
v 3.545174 0.356434 -0.043051
vt 0.625000 0.000000
vt 0.375000 0.250000
vt 0.375000 0.000000
vt 0.625000 0.250000
vt 0.375000 0.500000
vt 0.625000 0.500000
vt 0.375000 0.750000
vt 0.625000 0.750000
vt 0.375000 1.000000
vt 0.125000 0.750000
vt 0.125000 0.500000
vt 0.875000 0.500000
vt 0.625000 1.000000
vt 0.875000 0.750000
vn -0.7068 -0.7075 0.0000
vn 0.0000 0.0000 -1.0000
vn 0.7068 0.7075 0.0000
vn 0.0000 0.0000 1.0000
vn 0.7075 -0.7068 0.0000
vn -0.7075 0.7068 0.0000
usemtl None
s off
f 52/88/39 53/89/39 51/90/39
f 54/91/40 57/92/40 53/89/40
f 58/93/41 55/94/41 57/92/41
f 56/95/42 51/96/42 55/94/42
f 57/92/43 51/97/43 53/98/43
f 54/99/44 56/95/44 58/93/44
f 52/88/39 54/91/39 53/89/39
f 54/91/40 58/93/40 57/92/40
f 58/93/41 56/95/41 55/94/41
f 56/95/42 52/100/42 51/96/42
f 57/92/43 55/94/43 51/97/43
f 54/99/44 52/101/44 56/95/44
o Cube.004_Cube.025
v 3.605534 0.298242 0.041663
v 3.521701 0.286054 0.041663
v 3.605534 0.298242 -0.043051
v 3.521701 0.286054 -0.043051
v 3.571218 0.534281 0.041663
v 3.487385 0.522094 0.041663
v 3.571218 0.534281 -0.043051
v 3.487385 0.522094 -0.043051
vt 0.625000 0.000000
vt 0.375000 0.250000
vt 0.375000 0.000000
vt 0.625000 0.250000
vt 0.375000 0.500000
vt 0.625000 0.500000
vt 0.375000 0.750000
vt 0.625000 0.750000
vt 0.375000 1.000000
vt 0.125000 0.750000
vt 0.125000 0.500000
vt 0.875000 0.500000
vt 0.625000 1.000000
vt 0.875000 0.750000
vn 0.1439 -0.9896 0.0000
vn 0.0000 0.0000 -1.0000
vn -0.1439 0.9896 0.0000
vn -0.0000 0.0000 1.0000
vn 0.9896 0.1439 0.0000
vn -0.9896 -0.1439 0.0000
usemtl None
s off
f 60/102/45 61/103/45 59/104/45
f 62/105/46 65/106/46 61/103/46
f 66/107/47 63/108/47 65/106/47
f 64/109/48 59/110/48 63/108/48
f 65/106/49 59/111/49 61/112/49
f 62/113/50 64/109/50 66/107/50
f 60/102/45 62/105/45 61/103/45
f 62/105/46 66/107/46 65/106/46
f 66/107/47 64/109/47 63/108/47
f 64/109/48 60/114/48 59/110/48
f 65/106/49 63/108/49 59/111/49
f 62/113/50 60/115/50 64/109/50
o Cube.022_Cube.026
v 3.578621 0.526593 0.041663
v 3.489769 0.513675 0.041663
v 3.578621 0.526593 -0.043051
v 3.489769 0.513675 -0.043051
v 3.488909 1.143674 0.041663
v 3.400057 1.130756 0.041663
v 3.488909 1.143674 -0.043051
v 3.400057 1.130756 -0.043051
vt 0.625000 0.000000
vt 0.375000 0.250000
vt 0.375000 0.000000
vt 0.625000 0.250000
vt 0.375000 0.500000
vt 0.625000 0.500000
vt 0.375000 0.750000
vt 0.625000 0.750000
vt 0.375000 1.000000
vt 0.125000 0.750000
vt 0.125000 0.500000
vt 0.875000 0.500000
vt 0.625000 1.000000
vt 0.875000 0.750000
vn 0.1439 -0.9896 0.0000
vn 0.0000 0.0000 -1.0000
vn -0.1439 0.9896 0.0000
vn 0.0000 0.0000 1.0000
vn 0.9896 0.1439 0.0000
vn -0.9896 -0.1439 0.0000
usemtl None
s off
f 68/116/51 69/117/51 67/118/51
f 70/119/52 73/120/52 69/117/52
f 74/121/53 71/122/53 73/120/53
f 72/123/54 67/124/54 71/122/54
f 73/120/55 67/125/55 69/126/55
f 70/127/56 72/123/56 74/121/56
f 68/116/51 70/119/51 69/117/51
f 70/119/52 74/121/52 73/120/52
f 74/121/53 72/123/53 71/122/53
f 72/123/54 68/128/54 67/124/54
f 73/120/55 71/122/55 67/125/55
f 70/127/56 68/129/56 72/123/56
o Cube.023_Cube.027
v 3.489810 1.145204 0.041663
v 3.401926 1.126824 0.041663
v 3.489810 1.145204 -0.043051
v 3.401926 1.126824 -0.043051
v 3.362160 1.755567 0.041663
v 3.274276 1.737187 0.041663
v 3.362160 1.755567 -0.043051
v 3.274276 1.737187 -0.043051
vt 0.625000 0.000000
vt 0.375000 0.250000
vt 0.375000 0.000000
vt 0.625000 0.250000
vt 0.375000 0.500000
vt 0.625000 0.500000
vt 0.375000 0.750000
vt 0.625000 0.750000
vt 0.375000 1.000000
vt 0.125000 0.750000
vt 0.125000 0.500000
vt 0.875000 0.500000
vt 0.625000 1.000000
vt 0.875000 0.750000
vn 0.2047 -0.9788 0.0000
vn 0.0000 0.0000 -1.0000
vn -0.2047 0.9788 0.0000
vn 0.0000 0.0000 1.0000
vn 0.9788 0.2047 0.0000
vn -0.9788 -0.2047 0.0000
usemtl None
s off
f 76/130/57 77/131/57 75/132/57
f 78/133/58 81/134/58 77/131/58
f 82/135/59 79/136/59 81/134/59
f 80/137/60 75/138/60 79/136/60
f 81/134/61 75/139/61 77/140/61
f 78/141/62 80/137/62 82/135/62
f 76/130/57 78/133/57 77/131/57
f 78/133/58 82/135/58 81/134/58
f 82/135/59 80/137/59 79/136/59
f 80/137/60 76/142/60 75/138/60
f 81/134/61 79/136/61 75/139/61
f 78/141/62 76/143/62 80/137/62
o Cube.024_Cube.028
v 3.363585 1.752225 0.041663
v 3.276278 1.731273 0.041663
v 3.363585 1.752225 -0.043051
v 3.276278 1.731273 -0.043051
v 3.296903 2.030084 0.041663
v 3.209596 2.009132 0.041663
v 3.296903 2.030084 -0.043051
v 3.209596 2.009132 -0.043051
vt 0.625000 0.000000
vt 0.375000 0.250000
vt 0.375000 0.000000
vt 0.625000 0.250000
vt 0.375000 0.500000
vt 0.625000 0.500000
vt 0.375000 0.750000
vt 0.625000 0.750000
vt 0.375000 1.000000
vt 0.125000 0.750000
vt 0.125000 0.500000
vt 0.875000 0.500000
vt 0.625000 1.000000
vt 0.875000 0.750000
vn 0.2334 -0.9724 0.0000
vn 0.0000 0.0000 -1.0000
vn -0.2334 0.9724 0.0000
vn 0.0000 0.0000 1.0000
vn 0.9724 0.2334 0.0000
vn -0.9724 -0.2334 0.0000
usemtl None
s off
f 84/144/63 85/145/63 83/146/63
f 86/147/64 89/148/64 85/145/64
f 90/149/65 87/150/65 89/148/65
f 88/151/66 83/152/66 87/150/66
f 89/148/67 83/153/67 85/154/67
f 86/155/68 88/151/68 90/149/68
f 84/144/63 86/147/63 85/145/63
f 86/147/64 90/149/64 89/148/64
f 90/149/65 88/151/65 87/150/65
f 88/151/66 84/156/66 83/152/66
f 89/148/67 87/150/67 83/153/67
f 86/155/68 84/157/68 88/151/68
