# Blender v2.93.4 OBJ File: 'sword2.blend'
# www.blender.org
mtllib sword_rune.mtl
o Cube.015_Cube.018
v -0.348098 -0.000000 0.026730
v 0.174049 0.098869 0.026730
v 0.174049 -0.098869 0.026730
v 0.043512 -0.000000 0.026730
v -0.021756 0.197738 0.026730
v -0.021756 -0.197738 0.026730
v 0.043512 0.000000 -0.064917
v -0.021756 -0.197738 -0.019093
v -0.348098 0.000000 -0.019093
v 0.174049 -0.098869 -0.019093
v -0.021756 0.197738 -0.019093
v 0.174049 0.098869 -0.019093
vt 0.000000 0.000000
vt 0.000000 0.000000
vt 0.000000 0.000000
vt 0.000000 0.000000
vt 0.000000 0.000000
vt 0.000000 0.000000
vt 0.000000 0.000000
vt 0.000000 0.000000
vt 0.000000 0.000000
vt 0.000000 0.000000
vt 0.000000 0.000000
vt 0.000000 0.000000
vn -0.1341 -0.2655 0.9547
vn 0.1141 -0.1884 0.9754
vn 0.0000 0.0000 -1.0000
vn -0.4507 -0.8927 0.0000
vn -0.6038 0.7972 0.0000
vn -0.5182 0.8553 0.0000
vn 0.4507 -0.8927 0.0000
vn -0.6038 -0.7972 0.0000
vn 0.5182 0.8553 0.0000
vn 0.1141 0.1884 0.9754
vn 0.1341 -0.2655 -0.9547
usemtl None
s off
f 11/1/1 7/2/1 12/3/1
f 11/1/2 9/4/2 7/2/2
f 4/5/3 6/6/3 1/7/3
f 5/8/4 12/3/4 2/9/4
f 4/5/5 12/3/5 7/2/5
f 5/8/6 9/4/6 1/7/6
f 6/6/7 10/10/7 3/11/7
f 4/5/8 10/10/8 3/11/8
f 6/6/9 9/4/9 1/7/9
f 9/4/10 8/12/10 7/2/10
f 8/12/11 7/2/11 10/10/11
f 1/7/3 5/8/3 4/5/3
f 5/8/3 2/9/3 4/5/3
f 4/5/3 3/11/3 6/6/3
f 5/8/4 11/1/4 12/3/4
f 4/5/5 2/9/5 12/3/5
f 5/8/6 11/1/6 9/4/6
f 6/6/7 8/12/7 10/10/7
f 4/5/8 7/2/8 10/10/8
f 6/6/9 8/12/9 9/4/9
