# Blender 4.0.2
# www.blender.org
mtllib new_snare.mtl
o Cube.002_Cube.001
v -4.303741 -6.555540 -3.536866
v -4.225669 -5.363433 -5.072002
v -3.558077 -6.566847 -4.301129
v -3.733242 -5.836732 -2.990890
v -3.462006 -4.790155 -4.324207
v -4.313961 -4.781245 -3.461006
v -2.987579 -5.848042 -3.755153
v -5.077625 -5.354520 -4.208800
v -4.660184 -3.481997 -3.655257
v -3.653134 -3.484695 -4.693141
v -5.667233 -3.834439 -4.631472
v -4.660185 -3.837137 -5.669354
v 4.303739 -6.555541 3.536863
v 4.225667 -5.363436 5.072000
v 3.558075 -6.566848 4.301128
v 3.733241 -5.836734 2.990888
v 3.462005 -4.790156 4.324205
v 4.313960 -4.781244 3.461003
v 2.987578 -5.848043 3.755151
v 5.077623 -5.354521 4.208799
v 4.660183 -3.481999 3.655257
v 3.653133 -3.484697 4.693141
v 5.667232 -3.834441 4.631471
v 4.660182 -3.837139 5.669353
v 6.515230 -1.878660 5.015231
v 5.015230 -1.878660 6.515231
v 3.500001 -1.878660 5.000000
v -3.536864 -6.555541 4.303740
v -5.072001 -5.363435 4.225669
v -4.301127 -6.566850 3.558076
v -2.990888 -5.836735 3.733241
v -4.324206 -4.790157 3.462006
v -3.461004 -4.781246 4.313961
v -3.755151 -5.848042 2.987578
v -4.208798 -5.354522 5.077624
v -3.655256 -3.482000 4.660183
v -4.693139 -3.484698 3.653135
v -4.631471 -3.834441 5.667233
v -5.669354 -3.837140 4.660185
v 5.000002 -1.878660 3.500001
v -6.515230 3.000002 -5.015229
v -3.500000 5.000002 -4.999999
v -5.015230 3.000001 -6.515230
v -3.500000 3.000002 -5.000000
v -5.000001 5.000001 -3.499999
v -5.000001 3.000001 -3.500000
v -3.500002 4.999999 5.000002
v -6.515231 2.999998 5.015232
v -5.015231 2.999999 6.515232
v -5.000002 5.000000 3.500002
v -5.000002 2.999999 3.500001
v -3.500002 2.999998 5.000001
v 3.500000 4.999999 5.000002
v 6.515229 2.999998 5.015231
v 5.000001 5.000000 3.500002
v 3.500000 2.999999 5.000001
v 5.015230 2.999998 6.515232
v 5.000002 5.000001 -3.500000
v 5.015230 3.000002 -6.515230
v 3.500001 5.000002 -5.000000
v 5.000001 3.000000 -3.500000
v 6.515230 3.000002 -5.015230
v 3.500001 3.000002 -5.000000
v 5.000001 3.000000 3.500001
v 3.536864 -6.555540 -4.303742
v 5.072001 -5.363433 -4.225669
v 4.301128 -6.566847 -3.558078
v 2.990889 -5.836732 -3.733243
v 4.324205 -4.790155 -3.462007
v 3.461005 -4.781245 -4.313962
v 3.755151 -5.848042 -2.987580
v 4.208799 -5.354520 -5.077626
v 3.655257 -3.481997 -4.660183
v 4.693140 -3.484695 -3.653135
v 4.631472 -3.834439 -5.667233
v 5.669353 -3.837137 -4.660184
v 5.015230 -1.878657 -6.515231
v 5.000001 -1.878657 -3.500000
v 3.500001 -1.878658 -5.000000
v -3.500000 -1.878657 -5.000001
v -6.515230 -1.878657 -5.015231
v -5.015230 -1.878657 -6.515231
v -5.000001 -1.878658 -3.500001
v 6.515230 -1.878657 -5.015230
v 3.500002 0.000001 -5.000001
v -1.000000 3.000000 -1.000000
v 1.000000 3.000000 1.000000
v -1.000000 3.000000 1.000000
v -5.000001 0.000001 -3.500001
v -5.000001 -0.000002 3.500001
v 1.000001 3.000000 -1.000000
v 4.205282 0.596041 -4.205281
v 5.000002 0.000001 -3.500001
v -3.500001 -0.000002 5.000002
v 3.500001 -0.000002 5.000001
v 4.205281 0.596038 4.205282
v -4.205281 0.596038 4.205282
v 5.000002 -0.000002 3.500001
v -3.500000 0.000001 -5.000000
v -4.205281 0.596041 -4.205281
v -6.515229 -0.000002 5.015231
v -5.015230 -0.000002 6.515230
v 5.015231 0.000001 -6.515230
v 6.515230 0.000002 -5.015230
v -6.515229 0.000001 -5.015230
v -5.015230 0.000001 -6.515230
v 5.015231 -0.000002 6.515230
v 6.515230 -0.000001 5.015230
v 1.000000 7.000000 -0.999999
v -1.000001 7.000000 -0.999999
v 0.999999 7.000001 1.000001
v -1.000001 7.000001 1.000001
v -5.000001 -1.878660 3.500001
v -6.515230 -1.878660 5.015230
v -3.500001 -1.878660 5.000000
v -5.015229 -1.878660 6.515231
vn -0.5456 -0.6483 -0.5310
vn -0.5511 -0.6453 -0.5290
vn -0.5518 -0.6449 -0.5288
vn 0.5847 0.5758 0.5715
vn 0.5913 0.5715 0.5690
vn 0.5847 0.5761 0.5712
vn 0.7210 -0.0480 -0.6912
vn 0.7170 -0.0480 -0.6954
vn 0.7169 -0.0478 -0.6955
vn 0.4764 -0.7394 0.4757
vn -0.6857 -0.0350 0.7271
vn 0.6844 0.2828 0.6720
vn 0.6845 0.2826 0.6720
vn 0.6875 0.2889 0.6663
vn 0.7290 -0.0852 -0.6792
vn -0.6810 -0.0725 0.7287
vn -0.6450 -0.4303 -0.6316
vn -0.6493 -0.4269 -0.6294
vn -0.6496 -0.4269 -0.6292
vn 0.5456 -0.6483 0.5310
vn 0.5511 -0.6453 0.5290
vn 0.5518 -0.6449 0.5288
vn -0.5848 0.5758 -0.5714
vn -0.5913 0.5715 -0.5690
vn -0.5847 0.5761 -0.5712
vn -0.7210 -0.0480 0.6912
vn -0.7170 -0.0480 0.6954
vn -0.7169 -0.0478 0.6955
vn -0.4764 -0.7394 -0.4757
vn 0.6857 -0.0350 -0.7271
vn -0.6844 0.2828 -0.6720
vn -0.6845 0.2826 -0.6720
vn -0.6875 0.2889 -0.6663
vn -0.7290 -0.0852 0.6792
vn 0.6810 -0.0725 -0.7287
vn 0.6450 -0.4303 0.6315
vn 0.6493 -0.4269 0.6294
vn 0.6496 -0.4269 0.6292
vn 0.6487 -0.3978 0.6487
vn -0.6963 -0.1745 0.6963
vn -0.5310 -0.6483 0.5457
vn -0.5290 -0.6453 0.5511
vn -0.5288 -0.6449 0.5518
vn 0.5714 0.5758 -0.5848
vn 0.5690 0.5715 -0.5913
vn 0.5712 0.5761 -0.5847
vn -0.6912 -0.0480 -0.7211
vn -0.6954 -0.0480 -0.7170
vn -0.6955 -0.0478 -0.7169
vn 0.4757 -0.7394 -0.4764
vn 0.7271 -0.0350 0.6857
vn 0.6720 0.2828 -0.6844
vn 0.6720 0.2826 -0.6845
vn 0.6663 0.2889 -0.6875
vn -0.6792 -0.0852 -0.7290
vn 0.7287 -0.0725 0.6810
vn -0.6315 -0.4303 0.6450
vn -0.6294 -0.4269 0.6493
vn -0.6292 -0.4269 0.6496
vn -0.7163 0.0645 -0.6948
vn 0.6974 -0.1655 -0.6974
vn -0.4825 0.7311 -0.4825
vn 0.7071 -0.0000 -0.7071
vn -0.7071 -0.0000 0.7071
vn -0.4825 0.7311 0.4825
vn -0.7071 -0.0000 -0.7071
vn 0.7071 -0.0000 0.7071
vn 0.4825 0.7311 0.4825
vn 0.4825 0.7311 -0.4825
vn 0.5310 -0.6483 -0.5456
vn 0.5290 -0.6453 -0.5511
vn 0.5288 -0.6449 -0.5518
vn -0.5714 0.5758 0.5848
vn -0.5690 0.5715 0.5913
vn -0.5712 0.5761 0.5847
vn 0.6912 -0.0480 0.7210
vn 0.6954 -0.0480 0.7170
vn 0.6955 -0.0478 0.7169
vn -0.4757 -0.7394 0.4764
vn -0.7271 -0.0350 -0.6857
vn -0.6720 0.2828 0.6844
vn -0.6720 0.2826 0.6845
vn -0.6663 0.2889 0.6875
vn 0.6792 -0.0852 0.7290
vn -0.7287 -0.0725 -0.6810
vn 0.6315 -0.4303 -0.6450
vn 0.6294 -0.4269 -0.6493
vn 0.6292 -0.4269 -0.6496
vn 0.6350 -0.4088 -0.6555
vn -0.7048 0.0811 0.7048
vn -0.7377 -0.2076 -0.6424
vn 0.7163 0.0645 0.6948
vn 0.7170 -0.1962 -0.6689
vn -0.6487 -0.3978 -0.6487
vn -0.6974 -0.1655 0.6974
vn -0.5451 -0.6485 -0.5313
vn 0.5917 0.5713 0.5688
vn 0.7215 -0.0480 -0.6907
vn -0.6672 -0.0357 0.7441
vn 0.6841 0.2828 0.6723
vn 0.7073 -0.0738 -0.7030
vn -0.6759 -0.0579 0.7347
vn -0.6445 -0.4307 -0.6317
vn 0.5451 -0.6485 0.5313
vn -0.5917 0.5713 -0.5688
vn -0.7215 -0.0480 0.6907
vn 0.6672 -0.0357 -0.7441
vn -0.6841 0.2828 -0.6723
vn -0.7073 -0.0738 0.7030
vn 0.6759 -0.0579 -0.7347
vn 0.6445 -0.4307 0.6317
vn 0.6555 -0.4088 0.6350
vn -0.7170 -0.1962 0.6689
vn -0.5313 -0.6485 0.5451
vn 0.5688 0.5713 -0.5917
vn -0.6907 -0.0480 -0.7215
vn 0.7441 -0.0357 0.6672
vn 0.6723 0.2828 -0.6841
vn -0.7030 -0.0738 -0.7073
vn 0.7347 -0.0579 0.6759
vn -0.6317 -0.4307 0.6445
vn -0.7048 0.0811 -0.7048
vn 0.6424 -0.2076 -0.7377
vn 0.5313 -0.6485 -0.5451
vn -0.5688 0.5713 0.5917
vn 0.6907 -0.0480 0.7215
vn -0.7441 -0.0357 -0.6672
vn -0.6723 0.2828 0.6841
vn 0.7030 -0.0738 0.7073
vn -0.7347 -0.0579 -0.6759
vn 0.6317 -0.4307 -0.6445
vn 0.6487 -0.3978 -0.6487
vn -0.6948 0.0645 0.7163
vn -0.6974 -0.1655 -0.6974
vn 0.7048 0.0811 0.7048
vn 0.6963 -0.1745 -0.6963
vn -0.6555 -0.4088 -0.6350
vn -0.6424 -0.2076 0.7377
vn -0.0000 -0.0000 -1.0000
vn -0.0000 -1.0000 -0.0000
vn -1.0000 -0.0000 -0.0000
vn -0.6000 -0.8000 -0.0000
vn -0.0000 -0.0000 1.0000
vn -0.0000 -0.8000 0.6000
vn -0.0000 -0.8000 -0.6000
vn 0.6000 -0.8000 -0.0000
vn -0.7032 -0.1055 -0.7032
vn -0.7032 -0.1055 0.7032
vn 0.7032 -0.1055 -0.7032
vn 0.7032 -0.1055 0.7032
vn 1.0000 -0.0000 -0.0000
vn 0.4472 0.8944 -0.0000
vn -0.0000 0.8944 -0.4472
vn -0.2821 0.9169 -0.2821
vn 0.2821 0.9169 -0.2821
vn 0.2821 0.9169 0.2821
vn -0.0000 1.0000 -0.0000
vn -0.0000 0.8944 0.4472
vn -0.2821 0.9169 0.2821
vn -0.4472 0.8944 -0.0000
vn -0.6963 -0.1745 -0.6963
vn 0.7377 -0.2076 0.6424
vn 0.6948 0.0645 -0.7163
vn -0.6350 -0.4088 0.6555
vn 0.6963 -0.1745 0.6963
vn -0.6689 -0.1962 -0.7170
vn 0.6974 -0.1655 0.6974
vn 0.7048 0.0811 -0.7048
vn -0.6487 -0.3978 0.6487
vn 0.6689 -0.1962 0.7170
vt 0.964844 0.292969
vt 0.902344 0.367188
vt 0.902344 0.292969
vt 0.320312 0.144531
vt 0.378906 0.203125
vt 0.312500 0.203125
vt 0.181874 0.154708
vt 0.178134 0.046744
vt 0.116788 0.120276
vt 0.285156 0.597656
vt 0.339844 0.542969
vt 0.339844 0.597656
vt 0.177844 0.047175
vt 0.181788 0.154919
vt 0.116518 0.120841
vt 0.308594 0.277344
vt 0.382812 0.277344
vt 0.158188 0.234434
vt 0.073918 0.213798
vt 0.159293 0.234268
vt 0.898438 0.460938
vt 0.964844 0.367188
vt 0.976562 0.460938
vt 0.181863 0.154706
vt 0.178124 0.046743
vt 0.116778 0.120275
vt 0.285156 0.542969
vt 0.177836 0.047196
vt 0.181781 0.154940
vt 0.116510 0.120862
vt 0.158177 0.234433
vt 0.073911 0.213820
vt 0.159286 0.234289
vt 0.983628 0.570312
vt 0.886719 0.570312
vt 0.151831 0.333930
vt 0.072936 0.213413
vt 0.021741 0.334316
vt 0.181879 0.154708
vt 0.178140 0.046745
vt 0.116794 0.120277
vt 0.177842 0.047193
vt 0.181787 0.154937
vt 0.116516 0.120859
vt 0.158193 0.234435
vt 0.073917 0.213817
vt 0.159292 0.234286
vt 0.402344 0.363281
vt 0.151559 0.333935
vt 0.021469 0.334404
vt 0.987854 0.828125
vt 0.886331 0.980469
vt 0.886331 0.828125
vt 0.153079 0.751527
vt 0.152719 0.630109
vt 0.022628 0.630495
vt 0.153072 0.751508
vt 0.022544 0.630560
vt 0.152634 0.630091
vt 0.987854 0.980469
vt 0.153084 0.751528
vt 0.152724 0.630110
vt 0.022634 0.630495
vt 0.153070 0.751527
vt 0.022542 0.630578
vt 0.152633 0.630109
vt 0.153068 0.751526
vt 0.152709 0.630108
vt 0.022618 0.630493
vt 0.153089 0.751554
vt 0.152730 0.630136
vt 0.022639 0.630521
vt 0.153070 0.751508
vt 0.022847 0.630131
vt 0.152937 0.629662
vt 0.153064 0.751530
vt 0.022537 0.630581
vt 0.152627 0.630112
vt 0.181884 0.154734
vt 0.178145 0.046771
vt 0.116799 0.120302
vt 0.178147 0.046745
vt 0.182091 0.154489
vt 0.116820 0.120411
vt 0.158198 0.234461
vt 0.074221 0.213369
vt 0.159596 0.233839
vt 0.971909 0.460938
vt 0.292969 0.363281
vt 0.151869 0.333484
vt 0.072946 0.213414
vt 0.151842 0.333932
vt 0.151566 0.333914
vt 0.021476 0.334383
vt 0.371094 0.144531
vt 0.226317 0.090113
vt 0.226294 0.090245
vt 0.226307 0.090112
vt 0.226287 0.090267
vt 0.226323 0.090114
vt 0.226292 0.090264
vt 0.072952 0.213415
vt 0.226328 0.090140
vt 0.226597 0.089816
vt 0.072957 0.213441
vt 0.021779 0.333954
vt 0.021751 0.334317
vt 0.562500 0.656250
vt 0.203125 0.812500
vt 0.562500 0.812500
vt 0.489553 0.429717
vt 0.526072 0.394502
vt 0.526072 0.429717
vt 0.203125 0.656250
vt 0.617927 0.288333
vt 0.784908 0.158459
vt 0.831292 0.186289
vt 0.831292 0.476959
vt 0.617927 0.371823
vt 0.784908 0.501697
vt 0.292969 0.460938
vt 0.402344 0.460938
vt 0.339844 0.488281
vt 0.152190 0.448009
vt 0.152185 0.447983
vt 0.886719 0.667969
vt 0.983630 0.828125
vt 0.886719 0.828125
vt 0.021886 0.448452
vt 0.151976 0.447983
vt 0.983630 0.667969
vt 0.152280 0.447535
vt 0.022190 0.448005
vt 0.022089 0.448368
vt 0.021887 0.448434
vt 0.151978 0.447965
vt 0.152169 0.447981
vt 0.151970 0.447986
vt 0.021880 0.448455
vt 0.203125 0.910156
vt 0.562500 0.910156
vt 0.593750 0.843750
vt 0.835938 0.609375
vt 0.835938 0.976562
vt 0.593750 0.750000
vt 0.679688 0.609375
vt 0.414062 0.550781
vt 0.679688 0.507812
vt 0.976562 0.957031
vt 0.898438 0.878906
vt 0.976562 0.878906
vt 0.151847 0.333932
vt 0.021757 0.334317
vt 0.151565 0.333932
vt 0.151852 0.333958
vt 0.021762 0.334343
vt 0.021475 0.334401
vt 0.022094 0.448369
vt 0.022100 0.448394
vt 0.022079 0.448367
vt 0.983630 0.570312
vt 0.489553 0.394502
vt 0.152180 0.447983
vt 0.898438 0.957031
s 1
usemtl Material.002
f 1/1/1 2/2/2 3/3/3
f 4/4/4 5/5/5 6/6/6
f 5/7/7 3/8/8 2/9/9
f 4/10/10 3/11/10 7/12/10
f 1/13/11 6/14/11 8/15/11
f 9/16/12 5/5/13 10/17/14
f 2/9/15 10/18/15 5/7/15
f 11/19/16 6/14/16 9/20/16
f 12/21/17 8/22/18 11/23/19
f 13/1/20 14/2/21 15/3/22
f 16/4/23 17/5/24 18/6/25
f 17/24/26 15/25/27 14/26/28
f 16/27/29 15/12/29 19/10/29
f 13/28/30 18/29/30 20/30/30
f 21/16/31 17/5/32 22/17/33
f 14/26/34 22/31/34 17/24/34
f 23/32/35 18/29/35 21/33/35
f 24/21/36 20/22/37 23/23/38
f 24/21/39 25/34/39 26/35/39
f 27/36/40 24/37/40 26/38/40
f 28/1/41 29/2/42 30/3/43
f 31/4/44 32/5/45 33/6/46
f 32/39/47 30/40/48 29/41/49
f 31/10/50 30/11/50 34/12/50
f 28/42/51 33/43/51 35/44/51
f 36/16/52 32/5/53 37/17/54
f 29/41/55 37/45/55 32/39/55
f 38/46/56 33/43/56 36/47/56
f 39/21/57 35/22/58 38/23/59
f 27/48/60 21/16/60 22/17/60
f 23/32/61 40/49/61 25/50/61
f 41/51/62 42/52/62 43/53/62
f 42/54/63 44/55/63 43/56/63
f 45/57/64 41/58/64 46/59/64
f 47/60/65 48/53/65 49/51/65
f 50/61/66 51/62/66 48/63/66
f 47/64/67 49/65/67 52/66/67
f 53/52/68 54/51/68 55/60/68
f 53/67/64 56/68/64 57/69/64
f 58/52/69 59/51/69 60/60/69
f 58/70/67 61/71/67 62/72/67
f 60/73/66 59/74/66 63/75/66
f 55/76/63 54/77/63 64/78/63
f 65/1/70 66/2/71 67/3/72
f 68/4/73 69/5/74 70/6/75
f 69/79/76 67/80/77 66/81/78
f 68/10/79 67/11/79 71/12/79
f 65/82/80 70/83/80 72/84/80
f 73/16/81 69/5/82 74/17/83
f 66/81/84 74/85/84 69/79/84
f 75/86/85 70/83/85 73/87/85
f 76/21/86 72/22/87 75/23/88
f 77/34/89 76/21/89 75/88/89
f 73/16/90 78/48/90 79/89/90
f 79/90/91 75/86/91 73/87/91
f 80/48/92 9/16/92 10/17/92
f 12/91/93 80/92/93 10/18/93
f 12/21/94 81/34/94 82/35/94
f 11/19/95 83/93/95 81/94/95
f 1/1/1 8/22/96 2/2/2
f 4/4/4 7/95/97 5/5/5
f 5/7/7 7/96/98 3/8/8
f 4/10/10 1/27/10 3/11/10
f 1/13/99 4/97/99 6/14/99
f 9/16/12 6/6/100 5/5/13
f 2/9/101 12/91/101 10/18/101
f 11/19/102 8/15/102 6/14/102
f 12/21/17 2/2/103 8/22/18
f 13/1/20 20/22/104 14/2/21
f 16/4/23 19/95/105 17/5/24
f 17/24/26 19/98/106 15/25/27
f 16/27/29 13/11/29 15/12/29
f 13/28/107 16/99/107 18/29/107
f 21/16/31 18/6/108 17/5/32
f 14/26/109 24/37/109 22/31/109
f 23/32/110 20/30/110 18/29/110
f 24/21/36 14/2/111 20/22/37
f 24/21/112 23/88/112 25/34/112
f 27/36/113 22/31/113 24/37/113
f 28/1/41 35/22/114 29/2/42
f 31/4/44 34/95/115 32/5/45
f 32/39/47 34/100/116 30/40/48
f 31/10/50 28/27/50 30/11/50
f 28/42/117 31/101/117 33/43/117
f 36/16/52 33/6/118 32/5/53
f 29/41/119 39/102/119 37/45/119
f 38/46/120 35/44/120 33/43/120
f 39/21/57 29/2/121 35/22/58
f 27/48/122 40/89/122 21/16/122
f 23/32/123 21/33/123 40/49/123
f 41/51/62 45/60/62 42/52/62
f 47/60/65 50/52/65 48/53/65
f 53/52/68 57/53/68 54/51/68
f 58/52/69 62/53/69 59/51/69
f 65/1/70 72/22/124 66/2/71
f 68/4/73 71/95/125 69/5/74
f 69/79/76 71/103/126 67/80/77
f 68/10/79 65/27/79 67/11/79
f 65/82/127 68/104/127 70/83/127
f 73/16/81 70/6/128 69/5/82
f 66/81/129 76/105/129 74/85/129
f 75/86/130 72/84/130 70/83/130
f 76/21/86 66/2/131 72/22/87
f 77/34/132 84/35/132 76/21/132
f 73/16/133 74/17/133 78/48/133
f 79/90/134 77/106/134 75/86/134
f 80/48/135 83/89/135 9/16/135
f 12/91/136 82/107/136 80/92/136
f 12/21/137 11/88/137 81/34/137
f 11/19/138 9/20/138 83/93/138
f 85/108/139 44/109/139 63/110/139
f 86/111/140 87/112/140 88/113/140
f 51/109/141 89/108/141 90/114/141
f 91/115/142 92/116/142 93/117/142
f 56/110/143 94/114/143 95/108/143
f 86/115/144 85/118/144 91/119/144
f 87/119/145 96/120/145 95/118/145
f 88/115/146 97/116/146 90/117/146
f 98/121/147 95/122/147 96/123/147
f 85/121/148 93/122/148 92/123/148
f 94/121/149 90/122/149 97/123/149
f 89/121/150 99/122/150 100/123/150
f 93/124/67 62/72/67 61/71/67
f 90/125/66 48/63/66 51/62/66
f 93/108/151 64/109/151 98/114/151
f 101/126/64 49/127/64 48/128/64
f 52/66/67 102/129/67 94/130/67
f 103/131/63 62/128/63 104/126/63
f 85/132/66 59/74/66 103/133/66
f 105/131/66 43/128/66 106/126/66
f 44/55/63 106/134/63 43/56/63
f 46/59/64 105/135/64 89/136/64
f 54/127/67 107/126/67 108/131/67
f 95/137/64 57/69/64 56/68/64
f 98/138/63 54/77/63 108/139/63
f 46/110/141 50/140/141 45/141/141
f 61/110/151 55/140/151 64/109/151
f 44/109/139 60/141/139 63/110/139
f 56/110/143 47/140/143 52/109/143
f 109/142/152 55/143/152 58/144/152
f 109/145/153 42/144/153 110/142/153
f 45/146/154 110/147/154 42/148/154
f 58/148/155 60/146/155 109/147/155
f 55/146/156 111/147/156 53/148/156
f 110/149/157 111/150/157 109/151/157
f 53/143/158 112/142/158 47/144/158
f 112/147/159 50/148/159 47/146/159
f 45/143/160 112/142/160 110/145/160
f 113/152/161 39/102/161 114/153/161
f 115/154/162 38/46/162 36/47/162
f 113/48/163 36/16/163 37/17/163
f 116/34/164 39/21/164 38/88/164
f 78/155/165 76/105/165 84/156/165
f 114/35/64 102/131/64 101/126/64
f 116/157/67 94/130/67 102/129/67
f 90/125/66 114/153/66 101/158/66
f 94/121/63 113/48/63 90/122/63
f 82/35/66 105/131/66 106/126/66
f 81/94/64 89/136/64 105/135/64
f 89/121/67 80/48/67 99/122/67
f 106/134/63 80/92/63 82/107/63
f 84/35/63 103/131/63 104/126/63
f 77/106/66 85/132/66 103/133/66
f 93/124/67 84/156/67 104/159/67
f 85/121/64 78/48/64 93/122/64
f 95/137/64 26/38/64 107/160/64
f 107/126/67 25/161/67 108/131/67
f 25/50/63 98/138/63 108/139/63
f 98/121/66 27/48/66 95/122/66
f 85/108/139 99/114/139 44/109/139
f 86/111/140 91/162/140 87/112/140
f 51/109/141 46/110/141 89/108/141
f 93/117/142 98/118/142 91/115/142
f 98/118/142 96/120/142 87/119/142
f 91/115/142 98/118/142 87/119/142
f 56/110/143 52/109/143 94/114/143
f 86/115/144 100/116/144 99/117/144
f 99/117/144 85/118/144 86/115/144
f 85/118/144 92/120/144 91/119/144
f 95/118/145 94/117/145 87/119/145
f 94/117/145 97/116/145 88/115/145
f 87/119/145 94/117/145 88/115/145
f 90/117/146 89/118/146 88/115/146
f 89/118/146 100/120/146 86/119/146
f 88/115/146 89/118/146 86/119/146
f 93/124/67 104/159/67 62/72/67
f 90/125/66 101/158/66 48/63/66
f 93/108/151 61/110/151 64/109/151
f 101/126/64 102/131/64 49/127/64
f 52/66/67 49/65/67 102/129/67
f 103/131/63 59/127/63 62/128/63
f 85/132/66 63/75/66 59/74/66
f 105/131/66 41/127/66 43/128/66
f 44/55/63 99/163/63 106/134/63
f 46/59/64 41/58/64 105/135/64
f 54/127/67 57/128/67 107/126/67
f 95/137/64 107/160/64 57/69/64
f 98/138/63 64/78/63 54/77/63
f 46/110/141 51/109/141 50/140/141
f 61/110/151 58/141/151 55/140/151
f 44/109/139 42/140/139 60/141/139
f 56/110/143 53/141/143 47/140/143
f 109/142/152 111/145/152 55/143/152
f 109/145/153 60/143/153 42/144/153
f 110/149/157 112/164/157 111/150/157
f 53/143/158 111/145/158 112/142/158
f 45/143/160 50/144/160 112/142/160
f 113/152/166 37/45/166 39/102/166
f 115/154/167 116/157/167 38/46/167
f 113/48/168 115/89/168 36/16/168
f 116/34/169 114/35/169 39/21/169
f 78/155/170 74/85/170 76/105/170
f 114/35/64 116/161/64 102/131/64
f 116/157/67 115/154/67 94/130/67
f 90/125/66 113/152/66 114/153/66
f 94/121/63 115/89/63 113/48/63
f 82/35/66 81/161/66 105/131/66
f 81/94/64 83/93/64 89/136/64
f 89/121/67 83/89/67 80/48/67
f 106/134/63 99/163/63 80/92/63
f 84/35/63 77/161/63 103/131/63
f 77/106/66 79/90/66 85/132/66
f 93/124/67 78/155/67 84/156/67
f 85/121/64 79/89/64 78/48/64
f 95/137/64 27/36/64 26/38/64
f 107/126/67 26/35/67 25/161/67
f 25/50/63 40/49/63 98/138/63
f 98/121/66 40/89/66 27/48/66
